<svg version="1.1" style="width: 777px; height: 535px;" xmlns:xlink="http://www.w3.org/1999/xlink" xmlns="http://www.w3.org/2000/svg"><defs ><g xmlns="http://www.w3.org/2000/svg" id=":m1-1bon81ndm" bounds="4,0,458,400"><path stroke="none" fill="rgb(102,102,102)" d="M454.55 104.85 L454.55 107.35 4 107.35 4 104.85 454.55 104.85 Z"/><path stroke="none" fill="rgb(216,216,216)" d="M454.55 23 L454.55 24.5 4.15 24.5 4.05 23 454.55 23 Z"/><path stroke="none" fill="rgb(247,247,247)" d="M4.15 24.5 L454.55 24.5 454.55 104.6 5.1 104.6 5.1 26.3 4.5 26.3 Q4.25 25.45 4.15 24.5 Z"/><path fill="none" stroke="rgb(51,51,51)" stroke-width="2" stroke-linecap="round" stroke-linejoin="round" d="M454.55 23 L4.05 23"/><path fill="none" stroke="rgb(102,102,102)" stroke-width="2" stroke-linecap="round" stroke-linejoin="round" d="M4.15 24.5 L454.55 24.5"/><path stroke="none" fill="rgb(247,247,247)" d="M3.9 59.8 L460.55 59.8 460.55 399.2 3.9 399.2 3.9 59.8 Z"/><path fill="url(#:1-0-1bon81mmi)" stroke="none" d="M3.9 59.8 L3.9 0.4 460.55 0.4 460.55 59.8 3.9 59.8 Z"/><path fill="none" stroke="rgb(102,102,102)" stroke-width="1" stroke-linecap="round" stroke-linejoin="round" d="M460.55 59.8 L460.55 0.4 3.9 0.4 3.9 59.8 M460.55 59.8 L460.55 399.2 3.9 399.2 3.9 59.8"/><path fill="none" stroke="rgb(163,165,167)" stroke-width="1" stroke-linecap="round" stroke-linejoin="round" d="M3.9 59.8 L460.55 59.8"/></g><g xmlns="http://www.w3.org/2000/svg" id=":m3-1bon81ndm" bounds="0,2,325,19"><path fill="rgb(251,251,251)" stroke="rgb(179,180,181)" stroke-width="1" stroke-linecap="round" stroke-linejoin="round" d="M324.4 20.35 L0.35 20.35 0.35 2.5 324.4 2.5 324.4 20.35 Z"/></g><g xmlns="http://www.w3.org/2000/svg" id=":m4-1bon81ndm" bounds="0,0,12,9"><path stroke="none" fill="rgb(118,118,118)" d="M5.75 3.5 L8.65 0.25 11.35 0.25 11.35 2.6 5.3 8.75 0 2.85 0.3 0.2 2.7 0 5.75 3.5 Z"/></g><g xmlns="http://www.w3.org/2000/svg" id=":m6-1bon81ndm" bounds="300,7,11,10"><path stroke="none" fill="rgb(132,132,132)" d="M306.7 11.7 L306.7 11.4 307 11.4 306.7 11.7 Z"/><path fill="none" stroke="rgb(132,132,132)" stroke-width="2" stroke-linecap="round" stroke-linejoin="round" d="M306.5 7.1 Q307.75 7.1 308.65 8 309.5 8.9 309.5 10.15 309.5 11.4 308.65 12.25 307.75 13.15 306.5 13.15 305.25 13.15 304.35 12.25 303.5 11.4 303.5 10.1 303.5 8.9 304.35 8 305.25 7.1 306.5 7.1 M304 12.3 L300.45 15.4"/></g><g xmlns="http://www.w3.org/2000/svg" id=":m7-1bon81ndm" bounds="0,0,17,16"><path stroke="none" fill="rgb(107,134,158)" d="M13.8 2.35 Q14.9 3.45 15.5 4.9 16.15 6.4 16.2 8 16.15 9.6 15.5 11.1 14.9 12.55 13.8 13.7 L13.05 14.3 11.25 15.4 Q9.7 16 8.05 16 6.4 16 4.9 15.4 3.9 14.95 3.1 14.3 L2.35 13.7 Q1.25 12.55 0.65 11.1 0 9.6 0 8 0 6.4 0.65 4.9 1.25 3.45 2.35 2.35 3.45 1.2 4.9 0.65 6.4 0 8.05 0 9.7 0 11.25 0.65 12.65 1.2 13.8 2.35 Z"/></g><g xmlns="http://www.w3.org/2000/svg" id=":m8-1bon81ndm" bounds="-175,-175,351,351"><path stroke="none" fill="rgb(247,241,208)" d="M89.8 -150.75 L100.35 -143.8 84.3 -143.8 100.3 -123.6 100.3 -132.1 Q125.05 -112.6 146.55 -75.05 131.35 -84.15 125.05 -82.55 167.55 -52.8 144.55 -9 159.45 1.75 149.45 18.95 L139.45 11.45 139.45 20.1 151.05 38.95 151.05 45.95 143.65 38.4 143.65 32.7 138 27.5 139.45 20.1 132.6 6.7 128.35 14.35 125.8 6.25 118 0 Q93.6 22.15 94.8 53.2 74.85 35.25 71.8 11.95 L70.15 19.75 55 8.95 Q42.35 15.2 29.3 11.1 24 9.4 18.65 6.05 L5.75 -2.8 Q9.1 11.05 21.65 18.2 L27.9 12.4 39.1 20.9 Q25.05 48.25 -6.05 55.55 L-3.4 58.4 19.35 51.15 Q12.4 81.15 -19.25 98.35 L-19.2 98.4 -13.65 123.45 -17.45 129.75 -28.15 131.3 -32.1 134.8 -27.5 144.45 -35.05 146.15 -44.95 155 -64.15 152.35 Q-84.15 138.45 -98.1 116 L-93.3 105.85 -107.4 74 -105.6 61.45 -123.25 47.9 -144.55 42.95 -154 4.9 -149.1 -17.65 -133.15 -29.05 -127.5 -27.8 -124.6 -38.95 -115.8 -40.1 -80.2 -33 -85.2 -23.95 -65.95 -5.55 Q-67.9 -13.15 -62.95 -17.8 -50.8 -3.85 -32.2 -6.3 -22.45 -12.3 -27 -24.05 -35.35 -20.4 -43.75 -24.05 -48.5 -29.55 -44.9 -35 L-52.75 -36.55 -58 -25.55 -63.5 -51.3 -67 -57.3 -69.5 -57.3 -63 -36.8 -71.75 -32.55 -77.95 -32.55 -77.95 -38.3 -74.45 -35.6 -69.5 -35.65 -78 -58.05 -85.15 -58.05 -105.75 -45.55 Q-117.2 -46.7 -115.5 -57.3 -113.3 -65.25 -104.25 -67.3 L-97.75 -61.05 -88.5 -71.05 -92.3 -74.7 -68.05 -81 -50.35 -78.15 -21.45 -92.8 -35.95 -92.8 -28.95 -105.55 -42.15 -99.5 -42.15 -92.05 -55.95 -84.3 -51.45 -95.55 -58.95 -92.8 -55.9 -108.1 -52.8 -106.7 -22.1 -118.9 -6.5 -106.6 -19.75 -106.6 -16.5 -100.85 -7.5 -100.85 -7 -103.75 18.3 -114.35 18.3 -126.6 24.3 -119.85 31.8 -138.85 17.55 -142.35 47.3 -142.35 47.3 -145.35 58.05 -143.35 46.3 -151.1 53.55 -159.2 45.75 -163 42.35 -170.25 Q58.9 -166.35 74.1 -159.2 L80.65 -148.05 89.8 -150.75 M168.05 50.65 L167.8 51.6 153.55 63.2 134.8 41.95 134.3 38.45 151.05 46.95 153.05 47.95 153.05 58.7 Q164.4 41.7 168.05 50.65 M-114.2 -132.75 Q-100.1 -145.15 -84.45 -153.85 -54.5 -170.65 -18.95 -174.15 L-22.25 -148.1 -59 -134.2 Q-74.75 -140.55 -91.5 -130.35 -76 -148.5 -49.85 -150.7 L-37.75 -163.35 -40.35 -161.75 -40.8 -161.7 Q-63.15 -147.35 -84.45 -153.85 L-94.95 -141 -114.2 -132.75 M-9.3 52.1 L-7.65 53.9 -6.7 55.7 -6.05 55.55 -7.65 53.9 -8.15 52.95 Q-15.45 22.9 -35.05 1.35 -29.75 37.15 -9.3 52.1 M9.15 -51.55 L1.5 -44.1 10.05 -31.8 2.8 -24.55 19.35 -24.55 10.55 -47.05 15.8 -52.95 9.15 -51.55 M30.65 -41.45 L33.75 -53.5 25.75 -49.25 30.65 -41.45 M162.95 -26.55 L173.8 -3.55 171.3 -2.6 162.55 -26.55 162.95 -26.55 M168.05 30.7 L159.05 46.45 155.8 35.6 168.05 8.7 168.05 30.7 M102.3 47.7 Q103.05 49.3 103.05 51.55 103.05 53.8 102.3 55.35 101.6 56.95 100.55 56.95 99.5 56.95 98.75 55.35 98.05 53.8 98.05 51.55 98.05 49.3 98.75 47.7 99.5 46.15 100.55 46.15 101.6 46.15 102.3 47.7 M-78.2 -103.6 L-71.8 -99.25 -75.2 -94.4 -77.2 -82.15 -91.45 -82.15 -79.1 -90.4 -81.1 -95.4 -78.2 -97.15 -78.2 -103.6 M-42.7 86.85 Q-43.7 87.85 -43.7 89.25 -43.7 90.65 -42.7 91.65 -41.7 92.65 -40.3 92.65 -38.9 92.65 -37.9 91.65 -36.9 90.65 -36.9 89.25 -36.9 87.85 -37.9 86.85 -38.9 85.85 -40.3 85.85 -41.7 85.85 -42.7 86.85 M-14.05 -33.6 L-10.75 -37.45 -21.35 -53.8 -25 -44.55 -29.45 -54.95 -41.15 -41.95 -39.25 -37.8 -26.95 -37.85 -14.05 -33.6 M-90.95 -85.9 L-90.95 -92.9 -82.6 -97.9 -82.6 -92.3 -90.95 -85.9"/><path stroke="none" fill="rgb(159,191,215)" d="M-90.95 -85.9 L-82.6 -92.3 -82.6 -97.9 -90.95 -92.9 -90.95 -85.9 M100.35 -143.8 Q112.55 -135.05 123.8 -123.8 173.65 -73.95 175 -4 L173.8 -3.55 175.05 -0.85 175.05 0 174.95 7.25 Q174.1 30.05 168.05 50.65 164.4 41.7 153.05 58.7 L153.05 47.95 151.05 45.95 151.05 38.95 139.45 20.1 139.45 11.45 149.45 18.95 Q159.45 1.75 144.55 -9 167.55 -52.8 125.05 -82.55 131.35 -84.15 146.55 -75.05 125.05 -112.6 100.3 -132.1 L100.3 -123.6 84.3 -143.8 100.35 -143.8 M167.8 51.6 Q155.75 91.8 123.8 123.75 72.55 175 0.05 175.05 -72.5 175 -123.8 123.75 -175.05 72.5 -175 0 -175.05 -72.55 -123.8 -123.8 L-114.2 -132.75 -94.95 -141 -84.45 -153.85 Q-63.15 -147.35 -40.8 -161.7 L-40.35 -161.75 -37.75 -163.35 -49.85 -150.7 Q-76 -148.5 -91.5 -130.35 -74.75 -140.55 -59 -134.2 L-22.25 -148.1 -18.95 -174.15 0.05 -175.05 Q22.2 -175.05 42.35 -170.25 L45.75 -163 53.55 -159.2 46.3 -151.1 58.05 -143.35 47.3 -145.35 47.3 -142.35 17.55 -142.35 31.8 -138.85 24.3 -119.85 18.3 -126.6 18.3 -114.35 -7 -103.75 -7.5 -100.85 -16.5 -100.85 -19.75 -106.6 -6.5 -106.6 -22.1 -118.9 -52.8 -106.7 -55.9 -108.1 -58.95 -92.8 -51.45 -95.55 -55.95 -84.3 -42.15 -92.05 -42.15 -99.5 -28.95 -105.55 -35.95 -92.8 -21.45 -92.8 -50.35 -78.15 -68.05 -81 -92.3 -74.7 -88.5 -71.05 -97.75 -61.05 -104.25 -67.3 Q-113.3 -65.25 -115.5 -57.3 -117.2 -46.7 -105.75 -45.55 L-85.15 -58.05 -78 -58.05 -69.5 -35.65 -74.45 -35.6 -77.95 -38.3 -77.95 -32.55 -71.75 -32.55 -63 -36.8 -69.5 -57.3 -67 -57.3 -63.5 -51.3 -58 -25.55 -52.75 -36.55 -44.9 -35 Q-48.5 -29.55 -43.75 -24.05 -35.35 -20.4 -27 -24.05 -22.45 -12.3 -32.2 -6.3 -50.8 -3.85 -62.95 -17.8 -67.9 -13.15 -65.95 -5.55 L-85.2 -23.95 -80.2 -33 -115.8 -40.1 -124.6 -38.95 -127.5 -27.8 -133.15 -29.05 -149.1 -17.65 -154 4.9 -144.55 42.95 -123.25 47.9 -105.6 61.45 -107.4 74 -93.3 105.85 -98.1 116 Q-84.15 138.45 -64.15 152.35 L-44.95 155 -35.05 146.15 -27.5 144.45 -32.1 134.8 -28.15 131.3 -17.45 129.75 -13.65 123.45 -19.2 98.4 -19.25 98.35 Q12.4 81.15 19.35 51.15 L-3.4 58.4 -6.05 55.55 Q25.05 48.25 39.1 20.9 L27.9 12.4 21.65 18.2 Q9.1 11.05 5.75 -2.8 L18.65 6.05 Q24 9.4 29.3 11.1 42.35 15.2 55 8.95 L70.15 19.75 71.8 11.95 Q74.85 35.25 94.8 53.2 93.6 22.15 118 0 L125.8 6.25 128.35 14.35 132.6 6.7 139.45 20.1 138 27.5 143.65 32.7 143.65 38.4 151.05 45.95 151.05 46.95 134.3 38.45 134.8 41.95 153.55 63.2 167.8 51.6 M74.1 -159.2 Q82.25 -155.65 89.8 -150.75 L80.65 -148.05 74.1 -159.2 M-9.3 52.1 Q-29.75 37.15 -35.05 1.35 -15.45 22.9 -8.15 52.95 L-9.3 52.1 M30.65 -41.45 L25.75 -49.25 33.75 -53.5 30.65 -41.45 M9.15 -51.55 L15.8 -52.95 10.55 -47.05 19.35 -24.55 2.8 -24.55 10.05 -31.8 1.5 -44.1 9.15 -51.55 M162.55 -26.55 L171.3 -2.6 173.8 -3.55 162.95 -26.55 161.05 -30.55 162.55 -26.55 M102.3 47.7 Q101.6 46.15 100.55 46.15 99.5 46.15 98.75 47.7 98.05 49.3 98.05 51.55 98.05 53.8 98.75 55.35 99.5 56.95 100.55 56.95 101.6 56.95 102.3 55.35 103.05 53.8 103.05 51.55 103.05 49.3 102.3 47.7 M168.05 30.7 L168.05 8.7 155.8 35.6 159.05 46.45 168.05 30.7 M-78.2 -103.6 L-78.2 -97.15 -81.1 -95.4 -79.1 -90.4 -91.45 -82.15 -77.2 -82.15 -75.2 -94.4 -71.8 -99.25 -78.2 -103.6 M-14.05 -33.6 L-26.95 -37.85 -39.25 -37.8 -41.15 -41.95 -29.45 -54.95 -25 -44.55 -21.35 -53.8 -10.75 -37.45 -14.05 -33.6 M-42.7 86.85 Q-41.7 85.85 -40.3 85.85 -38.9 85.85 -37.9 86.85 -36.9 87.85 -36.9 89.25 -36.9 90.65 -37.9 91.65 -38.9 92.65 -40.3 92.65 -41.7 92.65 -42.7 91.65 -43.7 90.65 -43.7 89.25 -43.7 87.85 -42.7 86.85"/></g><g xmlns="http://www.w3.org/2000/svg" id=":m12-1bon81ndm" bounds="3,2,12,15"><path fill="rgb(255,255,255)" stroke="rgb(153,153,153)" stroke-width="0.75" stroke-linecap="square" stroke-linejoin="miter" stroke-miterlimit="3" d="M10.5 2.4 L10.7 2.55 11.35 3.2 13.95 5.85 14.1 6.15 13.95 6.45 10.5 10.05 10.25 10.15 10.05 10.15 9.85 10 9.75 9.75 9.75 7.45 8.75 7.3 Q7.4 7.3 6.4 8.25 5.5 9.15 5.5 10.45 5.5 11.8 6.4 12.7 L6.5 12.8 Q7.4 13.65 8.75 13.65 10.05 13.65 10.95 12.75 L11 12.7 11.75 11.6 11.9 11.4 12.15 11.35 13.9 11.35 14.15 11.4 14.3 11.6 14.3 11.85 Q13.95 13.3 12.8 14.45 L12.75 14.5 12.8 14.5 Q11.2 16.2 8.75 16.2 6.4 16.2 4.8 14.6 L4.65 14.5 Q3 12.9 3 10.45 3 8.05 4.65 6.45 6.4 4.8 8.75 4.8 L9.75 4.9 9.75 2.65 Q9.75 1.85 10.45 2.3 L10.5 2.4 Z"/></g><g xmlns="http://www.w3.org/2000/svg" id=":m13-1bon81ndm" bounds="0,0,15,14"><path stroke="none" fill="rgb(153,153,153)" d="M12.85 7.55 L13.55 6.6 7.15 0.7 4.65 3 4.65 1.8 3.05 1.8 3.05 4.4 0.7 6.5 1.45 7.5 2.6 6.35 2.6 13.3 5.25 13.3 5.25 8 8.9 8 8.9 13.3 11.55 13.3 11.55 6.25 12.85 7.55 M14.1 6.7 L12.95 8.35 12.1 7.5 12.1 13.8 8.4 13.8 8.4 8.5 5.8 8.5 5.8 13.8 2.1 13.8 2.1 7.6 1.35 8.3 0 6.4 2.5 4.15 2.5 1.3 5.15 1.3 5.15 1.8 7.2 0 14.05 6.35 14.15 6.55 14.15 6.6 14.1 6.7"/><path stroke="none" fill="rgb(255,255,255)" d="M12.85 7.55 L11.55 6.25 11.55 13.3 8.9 13.3 8.9 8 5.25 8 5.25 13.3 2.6 13.3 2.6 6.35 1.45 7.5 0.7 6.5 3.05 4.4 3.05 1.8 4.65 1.8 4.65 3 7.15 0.7 13.55 6.6 12.85 7.55"/></g><g xmlns="http://www.w3.org/2000/svg" id=":m14-1bon81ndm" bounds="-258,35,456,1"><path fill="none" stroke="rgb(163,165,167)" stroke-width="1" stroke-linecap="round" stroke-linejoin="round" d="M-258.05 35.5 L196.55 35.5"/><path fill="none" stroke="rgb(163,165,167)" stroke-width="1" stroke-linecap="round" stroke-linejoin="round" d="M-258.05 35.5 L196.55 35.5"/></g><g xmlns="http://www.w3.org/2000/svg" id=":m15-1bon81ndm" bounds="0,2,145,15"><path stroke="none" fill="rgb(251,251,251)" d="M143.65 14.95 L143.65 16.55 0 16.55 0 15.05 0 14.95 143.65 14.95 Z"/><path stroke="none" fill="rgb(249,248,248)" d="M143.65 14.95 L0 14.95 0 1.75 143.65 1.75 143.65 14.95 Z"/><path fill="none" stroke="rgb(163,165,167)" stroke-width="1" stroke-linecap="round" stroke-linejoin="round" d="M0 14.95 L0 1.75 143.65 1.75 143.65 14.95 M0 15.05 L0 14.95"/></g><g xmlns="http://www.w3.org/2000/svg" id=":m17-1bon81ndm" bounds="1,2,12,9"><text x="0" y="9" font-family="&apos;Arial Bold&apos;" font-size="10" font-weight="bold" fill="#7b7b7b" style="white-space:pre">x</text></g><g xmlns="http://www.w3.org/2000/svg" id=":m18-1bon81ndm" bounds="0,2,16,15"><path stroke="none" fill="rgb(251,251,251)" d="M0 15.05 L0 14.95 14.65 14.95 14.65 16.55 0 16.55 0 15.05 Z"/><path stroke="none" fill="rgb(218,218,218)" d="M14.65 14.95 L0 14.95 0 1.75 14.65 1.75 14.65 14.95 Z"/><path fill="none" stroke="rgb(163,165,167)" stroke-width="1" stroke-linecap="round" stroke-linejoin="round" d="M0 14.95 L0 15.05 M0 14.95 L0 1.75 14.65 1.75 14.65 14.95"/></g><g xmlns="http://www.w3.org/2000/svg" id=":m19-1bon81ndm" bounds="0,0,15,15"><path stroke="none" fill="rgb(153,153,153)" d="M14.5 5.45 L10.4 9 11.6 14.35 6.95 11.5 2.3 14.35 3.5 9 -0.6 5.45 4.8 4.9 6.95 0 9.1 4.9 14.5 5.45 M6.95 1.3 L5.15 5.4 0.7 5.85 4.05 8.8 3.1 13.25 6.95 10.9 10.8 13.25 9.8 8.8 13.2 5.85 8.7 5.4 6.95 1.3"/><path stroke="none" fill="rgb(255,255,255)" d="M6.95 1.3 L8.7 5.4 13.2 5.85 9.8 8.8 10.8 13.25 6.95 10.9 3.1 13.25 4.05 8.8 0.7 5.85 5.15 5.4 6.95 1.3"/></g><g xmlns="http://www.w3.org/2000/svg" id=":m20-1bon81ndm" bounds="1,1,13,14"><path stroke="none" fill="rgb(153,153,153)" d="M10.65 1.55 L10.85 1.65 11.85 2.55 12.75 3.55 12.85 3.7 11.8 4.95 12.15 5.7 13.75 5.9 13.75 6.05 13.9 7.4 13.75 8.75 13.75 8.9 12.15 9.1 11.8 9.85 12.85 11.1 12.75 11.25 11.85 12.25 10.85 13.15 10.65 13.25 9.45 12.2 8.7 12.55 8.5 14.15 8.35 14.15 7 14.3 5.65 14.15 5.5 14.15 5.3 12.55 4.55 12.2 3.3 13.25 3.15 13.15 2.15 12.25 1.25 11.25 1.15 11.05 2.2 9.85 1.9 9.1 0.3 8.9 0.25 8.75 0.1 7.4 Q0.1 6.7 0.25 6.05 L0.3 5.9 1.9 5.7 2.2 4.95 1.15 3.7 1.25 3.55 2.15 2.55 3.15 1.65 3.35 1.55 4.55 2.6 5.3 2.3 5.5 0.7 5.65 0.65 7 0.5 8.35 0.65 8.5 0.7 8.7 2.3 9.45 2.6 10.65 1.55 M5.65 6.1 Q6.25 5.55 7 5.55 7.75 5.55 8.35 6.1 8.85 6.65 8.85 7.4 8.85 8.2 8.35 8.75 7.75 9.25 7 9.25 6.25 9.25 5.65 8.75 5.15 8.2 5.15 7.4 5.15 6.65 5.65 6.1 M11.55 2.85 L10.7 2.15 9.5 3.2 9.35 3.1 8.35 2.7 8.25 2.65 8.05 1.05 7 1 5.9 1.05 5.75 2.65 5.65 2.7 4.65 3.1 4.5 3.2 3.3 2.15 2.45 2.85 1.75 3.7 2.8 4.9 2.7 5.05 2.3 6.05 2.25 6.15 0.65 6.3 0.6 7.4 0.65 8.5 2.25 8.65 2.3 8.75 2.7 9.75 2.8 9.9 1.75 11.1 2.45 11.95 3.3 12.65 4.5 11.6 4.65 11.7 5.65 12.1 5.75 12.15 5.9 13.75 7 13.8 8.05 13.75 8.25 12.15 8.35 12.1 9.35 11.7 9.5 11.65 10.7 12.65 11.55 11.95 12.25 11.1 11.2 9.9 11.3 9.75 11.7 8.75 11.75 8.65 13.35 8.5 13.4 7.4 13.35 6.35 11.75 6.15 11.7 6.05 11.3 5.05 11.2 4.9 12.25 3.7 11.55 2.85 M7.95 8.35 Q8.35 7.95 8.35 7.4 8.35 6.8 7.95 6.45 7.55 6.05 7 6.05 6.4 6.05 6.05 6.45 5.65 6.8 5.65 7.4 5.65 7.95 6.05 8.35 6.4 8.75 7 8.75 7.55 8.75 7.95 8.35"/><path stroke="none" fill="rgb(255,255,255)" d="M11.55 2.85 L12.25 3.7 11.2 4.9 11.3 5.05 11.7 6.05 11.75 6.15 13.35 6.35 13.4 7.4 13.35 8.5 11.75 8.65 11.7 8.75 11.3 9.75 11.2 9.9 12.25 11.1 11.55 11.95 10.7 12.65 9.5 11.65 9.35 11.7 8.35 12.1 8.25 12.15 8.05 13.75 7 13.8 5.9 13.75 5.75 12.15 5.65 12.1 4.65 11.7 4.5 11.6 3.3 12.65 2.45 11.95 1.75 11.1 2.8 9.9 2.7 9.75 2.3 8.75 2.25 8.65 0.65 8.5 0.6 7.4 0.65 6.3 2.25 6.15 2.3 6.05 2.7 5.05 2.8 4.9 1.75 3.7 2.45 2.85 3.3 2.15 4.5 3.2 4.65 3.1 5.65 2.7 5.75 2.65 5.9 1.05 7 1 8.05 1.05 8.25 2.65 8.35 2.7 9.35 3.1 9.5 3.2 10.7 2.15 11.55 2.85 M5.65 6.1 Q5.15 6.65 5.15 7.4 5.15 8.2 5.65 8.75 6.25 9.25 7 9.25 7.75 9.25 8.35 8.75 8.85 8.2 8.85 7.4 8.85 6.65 8.35 6.1 7.75 5.55 7 5.55 6.25 5.55 5.65 6.1"/></g><g xmlns="http://www.w3.org/2000/svg" id=":m21-1bon81ndm" bounds="3,3,13,13"><path stroke="none" fill="rgb(252,252,252)" d="M15 7.95 L15.1 7.95 15.1 10.6 15 10.6 7.65 10.65 10.4 13.45 8.2 15 2.65 8.95 8.75 3.25 10.5 5.05 7.7 7.95 15 7.95 Z"/><path fill="none" stroke="rgb(153,153,153)" stroke-width="0.75" stroke-linecap="butt" stroke-linejoin="miter" stroke-miterlimit="3" d="M15 10.6 L15.1 10.6 15.1 7.95 15 7.95"/><path fill="none" stroke="rgb(153,153,153)" stroke-width="0.75" stroke-linecap="square" stroke-linejoin="miter" stroke-miterlimit="3" d="M15 7.95 L7.7 7.95 10.5 5.05 8.75 3.25 2.65 8.95 8.2 15 10.4 13.45 7.65 10.65 15 10.6"/></g><g xmlns="http://www.w3.org/2000/svg" id=":m22-1bon81ndm" bounds="-69,-28,140,52"><path stroke="none" fill="rgb(0,255,255)" fill-opacity="0.27" d="M70.7 -28.65 L70.7 23.3 -69.3 23.3 -69.3 -28.65 70.7 -28.65 Z"/></g><g xmlns="http://www.w3.org/2000/svg" id=":m25-1bon81ndm" bounds="-27,-9,29,19"><path stroke="none" fill="rgb(171,69,67)" d="M-27.3 -8.7 L0.8 -8.7 0.8 8.75 -27.3 8.75 -27.3 -8.7 Z"/><path fill="none" stroke="rgb(129,52,50)" stroke-width="1" stroke-linecap="round" stroke-linejoin="round" d="M-27.3 -8.7 L-27.3 8.75 0.8 8.75 0.8 -8.7 -27.3 -8.7 Z"/></g><g xmlns="http://www.w3.org/2000/svg" id=":m26-1bon81ndm" bounds="1,3,15,10"><text x="0" y="12" font-family="&apos;Arial Bold&apos;" font-size="13" font-weight="bold" fill="#ffffff" style="white-space:pre">x</text></g><g xmlns="http://www.w3.org/2000/svg" id=":m28-1bon81ndm" bounds="-258,35,456,1"><path fill="none" stroke="rgb(204,204,204)" stroke-width="1" stroke-linecap="round" stroke-linejoin="round" d="M-258.05 35.5 L196.55 35.5"/></g><g xmlns="http://www.w3.org/2000/svg" id=":m30-1bon81ndm" bounds="-5,0,463,337"><path stroke="none" fill="rgb(255,255,255)" d="M0 46.05 L0 -0.95 458 -0.95 458 336.45 0 336.45 0 46.05 Z"/><path fill="none" stroke="rgb(204,204,204)" stroke-width="1" stroke-linecap="round" stroke-linejoin="round" d="M0 46.05 L-4.5 46.05"/></g><g xmlns="http://www.w3.org/2000/svg" id=":m32-1bon81ndm" bounds="5,11,76,45"><text x="0" y="54" font-family="&apos;Arial&apos;" font-size="60" fill="#166bec" style="white-space:pre">N</text></g><g xmlns="http://www.w3.org/2000/svg" id=":m33-1bon81ndm" bounds="2,16,69,40"><text x="0" y="54" font-family="&apos;Arial&apos;" font-size="60" fill="#d94934" style="white-space:pre">o</text></g><g xmlns="http://www.w3.org/2000/svg" id=":m34-1bon81ndm" bounds="2,16,69,40"><text x="0" y="54" font-family="&apos;Arial&apos;" font-size="60" fill="#ffb505" style="white-space:pre">o</text></g><g xmlns="http://www.w3.org/2000/svg" id=":m35-1bon81ndm" bounds="2,16,69,52"><text x="0" y="54" font-family="&apos;Arial&apos;" font-size="60" fill="#166bec" style="white-space:pre">g</text></g><g xmlns="http://www.w3.org/2000/svg" id=":m36-1bon81ndm" bounds="4,11,47,45"><text x="0" y="54" font-family="&apos;Arial&apos;" font-size="60" fill="#009655" style="white-space:pre">l</text></g><g xmlns="http://www.w3.org/2000/svg" id=":m37-1bon81ndm" bounds="3,16,68,40"><text x="0" y="54" font-family="&apos;Arial&apos;" font-size="60" fill="#d94934" style="white-space:pre">e</text></g><g xmlns="http://www.w3.org/2000/svg" id=":m39-1bon81ndm" bounds="1,3,62,14"><text x="0" y="15" font-family="&apos;Verdana&apos;" font-size="15" fill="#166bec" style="white-space:pre">search</text></g><g xmlns="http://www.w3.org/2000/svg" id=":m40-1bon81ndm" bounds="0,0,341,30"><path fill="rgb(255,255,255)" stroke="rgb(102,102,102)" stroke-width="1" stroke-linecap="round" stroke-linejoin="round" d="M340 29.5 L0 29.5 0 0 340 0 340 29.5 Z"/></g><g xmlns="http://www.w3.org/2000/svg" id=":m93-1bon81ndm" bounds="0,0,41,31"><path stroke="none" fill="rgb(22,107,236)" d="M0 0 L39.65 0 39.65 29.75 0 29.75 0 0 M25.7 15.5 L24.9 15.5 24.9 16.1 25.7 15.5"/><path stroke="none" fill="rgb(132,132,132)" d="M25.7 15.5 L24.9 16.1 24.9 15.5 25.7 15.5"/><path fill="none" stroke="rgb(103,158,241)" stroke-width="1" stroke-linecap="round" stroke-linejoin="round" d="M0 0 L39.65 0 39.65 29.75 0 29.75 0 0"/><path fill="none" stroke="rgb(255,255,255)" stroke-width="2" stroke-linecap="round" stroke-linejoin="round" d="M27.65 17.3 Q25.8 19.1 23.3 19.1 20.75 19.1 18.9 17.3 17.2 15.55 17.2 12.9 17.2 10.5 18.9 8.65 20.75 6.85 23.3 6.85 25.8 6.85 27.65 8.65 29.35 10.5 29.35 13 29.35 15.55 27.65 17.3 M18.2 17.4 L11 23.65"/></g><g xmlns="http://www.w3.org/2000/svg" id=":m94-1bon81ndm" bounds="-1,90,462,1"><path fill="none" stroke="rgb(227,227,227)" stroke-width="1" stroke-linecap="round" stroke-linejoin="round" d="M-1.2 89.75 L460 89.75"/></g><g xmlns="http://www.w3.org/2000/svg" id=":m95-1bon81ndm" bounds="1,3,391,35"><text x="0" y="13" font-family="&apos;Verdana&apos;" font-size="13" fill="#0f489e" style="white-space:pre">geology.com/rocks/limestone.shtml</text><text x="0" y="34" font-family="&apos;Verdana&apos;" font-size="13" fill="#000000" style="white-space:pre">Limestone is a sedimentary rock composed primarily of ...</text></g><g xmlns="http://www.w3.org/2000/svg" id=":m96-1bon81ndm" bounds="2,3,419,18"><text x="0" y="16" font-family="&apos;Verdana&apos;" font-size="16" fill="#000000" style="white-space:pre">Limestone: Rock Formation, Composition, Pictures</text></g><g xmlns="http://www.w3.org/2000/svg" id=":m97-1bon81ndm" bounds="0,3,406,35"><text x="0" y="13" font-family="&apos;Verdana&apos;" font-size="13" fill="#0f489e" style="white-space:pre">www.golimestonesaints.com/index.aspx</text><text x="0" y="34" font-family="&apos;Verdana&apos;" font-size="13" fill="#000000" style="white-space:pre">The official website of the Limestone College Saints. Field ...</text></g><g xmlns="http://www.w3.org/2000/svg" id=":m98-1bon81ndm" bounds="2,3,289,18"><text x="0" y="16" font-family="&apos;Verdana&apos;" font-size="16" fill="#000000" style="white-space:pre">Field Hockey - Limestone Athletics</text></g><g xmlns="http://www.w3.org/2000/svg" id=":m99-1bon81ndm" bounds="1,3,49,15"><text x="0" y="16" font-family="&apos;Verdana&apos;" font-size="16" fill="#d94934" style="white-space:pre">Web</text></g><g xmlns="http://www.w3.org/2000/svg" id=":m100-1bon81ndm" bounds="0,0,20,3"><path stroke="none" fill="rgb(217,73,52)" d="M0 0 L19.45 0 19.45 2.65 0 2.65 0 0 Z"/></g><g xmlns="http://www.w3.org/2000/svg" id=":m101-1bon81ndm" bounds="2,4,102,16"><text x="0" y="18" font-family="&apos;Verdana&apos;" font-size="18" fill="#000000" style="white-space:pre">limestone</text></g><g xmlns="http://www.w3.org/2000/svg" id=":m103-1bon81ndm" bounds="1,3,391,35"><text x="0" y="13" font-family="&apos;Verdana&apos;" font-size="13" fill="#0f489e" style="white-space:pre">en.wikipedia.org/wiki/Limestone</text><text x="0" y="34" font-family="&apos;Verdana Bold&apos;" font-size="13" font-weight="bold" fill="#000000" style="white-space:pre">Limestone</text><text x="75.6" y="34" font-family="&apos;Verdana&apos;" font-size="13" fill="#000000" style="white-space:pre"> is a sedimentary rock composed largely of  ...</text></g><g xmlns="http://www.w3.org/2000/svg" id=":m104-1bon81ndm" bounds="2,3,374,18"><text x="0" y="16" font-family="&apos;Verdana&apos;" font-size="16" fill="#000000" style="white-space:pre">Limestone - Wikipedia, the free encyclopedia</text></g><g xmlns="http://www.w3.org/2000/svg" id=":m105-1bon81ndm" bounds="2,4,72,17"><text x="0" y="16" font-family="&apos;Verdana&apos;" font-size="16" fill="#666666" style="white-space:pre">Images</text></g><g xmlns="http://www.w3.org/2000/svg" id=":m106-1bon81ndm" bounds="2,4,54,17"><text x="0" y="16" font-family="&apos;Verdana&apos;" font-size="16" fill="#666666" style="white-space:pre">Maps</text></g><g xmlns="http://www.w3.org/2000/svg" id=":m107-1bon81ndm" bounds="1,3,66,15"><text x="0" y="16" font-family="&apos;Verdana&apos;" font-size="16" fill="#666666" style="white-space:pre">Videos</text></g><g xmlns="http://www.w3.org/2000/svg" id=":m108-1bon81ndm" bounds="-46,4,55,14"><text x="0" y="16" font-family="&apos;Verdana&apos;" font-size="16" fill="#666666" style="white-space:pre" transform="matrix(1 0 0 1 -48.4 0)">News</text></g><g xmlns="http://www.w3.org/2000/svg" id=":m109-1bon81ndm" bounds="-2,-3,16,14"><path stroke="none" fill="rgb(118,118,118)" d="M10.85 2.4 L5.35 8.05 0.55 2.7 0.75 0.7 2.5 0.55 5.4 3.85 5.6 4 5.9 4 6.15 3.85 8.9 0.75 10.85 0.75 10.85 2.4 Z"/><path fill="none" stroke="rgb(118,118,118)" stroke-width="1" stroke-linecap="round" stroke-linejoin="round" d="M-1.95 -3.05 L13.25 -3.05 13.25 10.05 -1.95 10.05 -1.95 -3.05 Z"/></g><g xmlns="http://www.w3.org/2000/svg" id=":m111-1bon81ndm" bounds="0,19,20,318"><path stroke="none" fill="rgb(206,206,206)" d="M0.9 18.15 L18.9 18.5 18.9 97.15 19.05 97.15 19.2 163.9 19.3 163.9 19.3 164.7 19.35 164.7 19.35 281.5 19.4 280.35 19.5 336.1 0 335.9 0.25 280.35 0.25 281.85 0.3 265.85 0.25 265.85 0.25 262.7 0.3 262.7 0.3 190.4 0.3 163.9 0.45 163.9 0.65 97.4 0.85 97.4 0.9 18.15 Z"/></g><g xmlns="http://www.w3.org/2000/svg" id=":m112-1bon81ndm" bounds="0,0,22,22"><path stroke="none" fill="rgb(255,255,255)" d="M5.6 14.8 L15.8 14.8 10.8 6.2 5.6 14.8 M0 21 L0 0 21 0 21 21 0 21"/><path fill="none" stroke="rgb(102,102,102)" stroke-width="1" stroke-linecap="round" stroke-linejoin="round" d="M0 21 L0 0 21 0 21 21 0 21"/><path stroke="none" fill="rgb(102,102,102)" d="M5.6 14.05 L10.8 5.45 15.8 14.05 5.6 14.05"/></g><g xmlns="http://www.w3.org/2000/svg" id=":m113-1bon81ndm" bounds="0,0,19,125"><path fill="rgb(255,255,255)" stroke="rgb(102,102,102)" stroke-width="1" stroke-linecap="round" stroke-linejoin="round" d="M18.45 0.45 L18.45 123.7 0 123.7 0 0.45 18.45 0.45 Z"/></g><g xmlns="http://www.w3.org/2000/svg" id=":m46-1bon81ndm" bounds="0,0,348,27"><path fill="rgb(255,255,255)" stroke="rgb(32,32,32)" stroke-width="1" stroke-opacity="0" stroke-linecap="round" stroke-linejoin="round" d="M0 0 L347 0 347 26 0 26 0 0 Z" fill-opacity="0"/></g><g xmlns="http://www.w3.org/2000/svg" id=":m43-1bon81ndm" bounds="0,0,99,32"><path fill="rgb(207,207,207)" stroke="rgb(204,204,204)" stroke-width="1" stroke-linecap="round" stroke-linejoin="round" d="M98.1 31.45 L0 31.45 0 0 98.1 0 98.1 31.45 Z"/></g><g xmlns="http://www.w3.org/2000/svg" id=":m114-1bon81ndm" bounds="1,2,280,15"><text x="0" y="13" font-family="&apos;Arial&apos;" font-size="14" fill="#000000" style="white-space:pre">http://www.noogle.com/search?q=limestone</text></g><g xmlns="http://www.w3.org/2000/svg" id=":m44-1bon81ndm" bounds="2,4,79,14"><text x="0" y="16" font-family="&apos;Verdana&apos;" font-size="16" fill="#000000" style="white-space:pre">SEARCH</text></g><g xmlns="http://www.w3.org/2000/svg" id=":m115-1bon81ndm" bounds="1,1,123,12"><text x="0" y="9" font-family="&apos;Arial&apos;" font-size="10" fill="#000000" style="white-space:pre">Noogle Search - limestone</text></g><g xmlns="http://www.w3.org/2000/svg" id=":m48-1bon81ndm" bounds="1,2,150,15"><text x="0" y="13" font-family="&apos;Arial&apos;" font-size="14" fill="#000000" style="white-space:pre">http://www.noogle.com</text></g><g xmlns="http://www.w3.org/2000/svg" id=":m116-1bon81ndm" bounds="3,3,13,13"><path stroke="none" fill="rgb(212,223,178)" d="M15 7.95 L15.1 7.95 15.1 10.6 15 10.6 7.65 10.65 10.4 13.45 8.2 15 2.65 8.95 8.75 3.25 10.5 5.05 7.7 7.95 15 7.95 Z"/><path fill="none" stroke="rgb(153,153,153)" stroke-width="0.75" stroke-linecap="butt" stroke-linejoin="miter" stroke-miterlimit="3" d="M15 10.6 L15.1 10.6 15.1 7.95 15 7.95"/><path fill="none" stroke="rgb(153,153,153)" stroke-width="0.75" stroke-linecap="square" stroke-linejoin="miter" stroke-miterlimit="3" d="M15 7.95 L7.7 7.95 10.5 5.05 8.75 3.25 2.65 8.95 8.2 15 10.4 13.45 7.65 10.65 15 10.6"/></g><g xmlns="http://www.w3.org/2000/svg" id=":m49-1bon81ndm" bounds="1,1,72,12"><text x="0" y="9" font-family="&apos;Arial&apos;" font-size="10" fill="#000000" style="white-space:pre">Noogle Search</text></g><g xmlns="http://www.w3.org/2000/svg" id=":m91-1bon81ndm" bounds="2,4,113,18"><text x="0" y="20" font-family="&apos;Verdana&apos;" font-size="20" fill="#000000" style="white-space:pre">limestone</text></g><g xmlns="http://www.w3.org/2000/svg" id=":m92-1bon81ndm" bounds="0,0,243,28"><path stroke="none" fill="rgb(255,255,255)" d="M242.15 27.15 L0 27.15 0 0 242.15 0 242.15 27.15 Z"/></g><g xmlns="http://www.w3.org/2000/svg" id=":m90-1bon81ndm" bounds="0,0,30,30"><path stroke="none" fill="rgb(0,0,0)" d="M30 30 L0 30 0 0 30 0 30 30 Z"/></g><g xmlns="http://www.w3.org/2000/svg" id=":m50-1bon81ndm" bounds="1,55,198,170"><path stroke="none" fill="rgb(0,0,0)" d="M198.7 62.7 L196.65 224.1 167 222.95 167 222.6 0.05 216.25 1.4 54.8 177 61.5 177 61.9 198.7 62.7 M167 65.05 L3.45 58.25 3.45 212.35 167 217.7 167 218.05 192.9 218.9 195.25 66.65 167 65.45 167 65.05"/><path stroke="none" fill="rgb(204,204,204)" d="M167 65.05 L167 65.45 195.25 66.65 192.9 218.9 167 218.05 167 217.7 3.45 212.35 3.45 58.25 167 65.05"/><path stroke="none" fill="rgb(255,255,255)" d="M170.45 114.65 L68.45 114.65 68.45 91.15 170.45 91.15 170.45 114.65"/></g><g xmlns="http://www.w3.org/2000/svg" id=":m51-1bon81ndm" bounds="1,3,168,70"><text x="0" y="18" font-family="&apos;Arial&apos;" font-size="18" fill="#000000" style="white-space:pre">Type   </text><text x="55" y="18" font-family="&apos;Arial&apos;" font-size="20" fill="#000000" style="white-space:pre">limestone  .</text><text x="0" y="41" font-family="&apos;Arial&apos;" font-size="18" fill="#000000" style="white-space:pre">Click or tap</text><text x="0" y="72" font-family="&apos;Arial&apos;" font-size="18" fill="#000000" style="white-space:pre">                      .</text></g><g xmlns="http://www.w3.org/2000/svg" id=":m52-1bon81ndm" bounds="0,0,201,174"><path stroke="none" fill="rgb(255,255,204)" fill-opacity="0.33" d="M197.4 10.95 Q198.9 12.45 198.9 14.6 L196.95 166.65 Q196.95 168.05 196.2 169.25 195.45 170.5 194.2 171.15 193 171.8 191.6 171.8 L117 169 117 168.6 6.85 164.4 Q4.75 164.3 3.3 162.8 1.8 161.25 1.85 159.15 L3.15 7 Q3.15 5.6 3.9 4.4 4.65 3.2 5.85 2.5 7.1 1.8 8.5 1.85 L117 6 117 6.4 193.9 9.3 Q195.95 9.4 197.4 10.95 M197.1 11.25 Q195.75 9.9 193.9 9.8 L117 6.9 117 6.5 8.5 2.35 Q7.25 2.3 6.1 2.9 4.95 3.5 4.3 4.65 3.6 5.75 3.6 7 L2.35 159.15 Q2.3 161.05 3.6 162.45 4.95 163.85 6.85 163.95 L117 168.15 117 168.55 191.6 171.35 Q192.85 171.35 194.05 170.75 L195.8 169 Q196.5 167.95 196.5 166.65 L198.4 14.6 Q198.4 12.65 197.1 11.25 M117 19.9 L185.7 22.75 183.55 156.8 117 154.65 117 154.3 14.95 150.95 14.95 15.25 117 19.5 117 19.9 15.45 15.7 15.45 150.5 117 153.85 117 154.2 183.15 156.35 185.2 23.15 117 20.35 117 19.9"/><path stroke="none" fill="rgb(255,255,204)" fill-opacity="0.4" d="M117 19.9 L117 19.5 14.95 15.25 14.95 150.95 117 154.3 117 154.65 183.55 156.8 185.7 22.75 117 19.9 M196.75 11.55 Q195.55 10.3 193.85 10.25 L117 7.35 117 6.95 8.5 2.8 Q7.35 2.75 6.35 3.35 5.3 3.9 4.7 4.9 4.1 5.8 4.1 7 L2.8 159.15 Q2.75 160.85 4 162.15 5.15 163.35 6.85 163.45 L117 167.65 117 168.05 191.65 170.85 Q192.75 170.85 193.8 170.35 L195.4 168.8 Q196 167.8 196 166.65 L197.95 14.55 Q197.95 12.85 196.75 11.55 M197.1 11.25 Q198.4 12.65 198.4 14.6 L196.5 166.65 Q196.5 167.95 195.8 169 L194.05 170.75 Q192.85 171.35 191.6 171.35 L117 168.55 117 168.15 6.85 163.95 Q4.95 163.85 3.6 162.45 2.3 161.05 2.35 159.15 L3.6 7 Q3.6 5.75 4.3 4.65 4.95 3.5 6.1 2.9 7.25 2.3 8.5 2.35 L117 6.5 117 6.9 193.9 9.8 Q195.75 9.9 197.1 11.25 M186.15 22.25 L184.05 157.35 117 155.15 117 154.85 14.5 151.45 14.5 14.75 117 19 117 19.4 186.15 22.25"/><path stroke="none" fill="rgb(255,255,204)" fill-opacity="0.46" d="M186.15 22.25 L117 19.4 117 19 14.5 14.75 14.5 151.45 117 154.85 117 155.15 184.05 157.35 186.15 22.25 M196.45 11.9 Q195.35 10.75 193.85 10.75 L117 7.85 117 7.45 8.45 3.3 Q7.4 3.25 6.55 3.75 5.65 4.2 5.1 5.1 4.55 5.95 4.55 7.05 L3.3 159.15 Q3.25 160.7 4.3 161.8 5.35 162.9 6.9 163 L117 167.2 117 167.6 191.65 170.4 193.55 169.9 195 168.55 Q195.55 167.65 195.55 166.65 L197.45 14.55 Q197.45 13.05 196.45 11.9 M196.75 11.55 Q197.95 12.85 197.95 14.55 L196 166.65 Q196 167.8 195.4 168.8 L193.8 170.35 Q192.75 170.85 191.65 170.85 L117 168.05 117 167.65 6.85 163.45 Q5.15 163.35 4 162.15 2.75 160.85 2.8 159.15 L4.1 7 Q4.1 5.8 4.7 4.9 5.3 3.9 6.35 3.35 7.35 2.75 8.5 2.8 L117 6.95 117 7.35 193.85 10.25 Q195.55 10.3 196.75 11.55 M186.65 21.85 L184.5 157.8 117 155.6 117 155.25 14 151.85 14 14.25 117 18.55 117 18.95 186.65 21.85"/><path stroke="none" fill="rgb(255,255,204)" fill-opacity="0.53" d="M186.65 21.85 L117 18.95 117 18.55 14 14.25 14 151.85 117 155.25 117 155.6 184.5 157.8 186.65 21.85 M196.05 12.25 Q195.1 11.25 193.8 11.2 L117 8.3 117 7.9 8.45 3.75 Q7.55 3.7 6.75 4.15 5.95 4.6 5.5 5.35 5 6.1 5 7.05 L3.75 159.15 Q3.7 160.5 4.65 161.5 5.6 162.4 6.9 162.5 L117 166.7 117 167.1 191.65 169.9 Q192.5 169.9 193.3 169.5 L194.6 168.3 195.05 166.65 197 14.55 Q197 13.2 196.05 12.25 M196.45 11.9 Q197.45 13.05 197.45 14.55 L195.55 166.65 Q195.55 167.65 195 168.55 L193.55 169.9 191.65 170.4 117 167.6 117 167.2 6.9 163 Q5.35 162.9 4.3 161.8 3.25 160.7 3.3 159.15 L4.55 7.05 Q4.55 5.95 5.1 5.1 5.65 4.2 6.55 3.75 7.4 3.25 8.45 3.3 L117 7.45 117 7.85 193.85 10.75 Q195.35 10.75 196.45 11.9 M187.1 21.4 L185 158.25 117 156.05 117 155.75 13.55 152.35 13.55 13.75 117 18.05 117 18.5 187.1 21.4"/><path stroke="none" fill="rgb(255,255,204)" fill-opacity="0.6" d="M187.1 21.4 L117 18.5 117 18.05 13.55 13.75 13.55 152.35 117 155.75 117 156.05 185 158.25 187.1 21.4 M196.05 12.25 Q197 13.2 197 14.55 L195.05 166.65 194.6 168.3 193.3 169.5 Q192.5 169.9 191.65 169.9 L117 167.1 117 166.7 6.9 162.5 Q5.6 162.4 4.65 161.5 3.7 160.5 3.75 159.15 L5 7.05 Q5 6.1 5.5 5.35 5.95 4.6 6.75 4.15 7.55 3.7 8.45 3.75 L117 7.9 117 8.3 193.8 11.2 Q195.1 11.25 196.05 12.25 M196.55 14.55 Q196.55 13.35 195.75 12.55 194.95 11.7 193.8 11.65 L117 8.75 117 8.35 8.45 4.2 Q7.65 4.15 7 4.55 6.3 4.95 5.9 5.6 5.5 6.25 5.5 7.05 L4.2 159.15 Q4.15 160.3 4.95 161.15 5.75 162 6.9 162.05 L117 166.25 117 166.65 191.65 169.45 Q192.45 169.45 193.15 169.1 L194.2 168.1 Q194.6 167.4 194.6 166.65 L196.55 14.55 M117 17.55 L117 18 187.55 20.9 185.45 158.8 117 156.55 117 156.25 13.1 152.8 13.1 13.25 117 17.55"/><path stroke="none" fill="rgb(255,255,204)" fill-opacity="0.26" d="M197.4 10.95 Q195.95 9.4 193.9 9.3 L117 6.4 117 6 8.5 1.85 Q7.1 1.8 5.85 2.5 4.65 3.2 3.9 4.4 3.15 5.6 3.15 7 L1.85 159.15 Q1.8 161.25 3.3 162.8 4.75 164.3 6.85 164.4 L117 168.6 117 169 191.6 171.8 Q193 171.8 194.2 171.15 195.45 170.5 196.2 169.25 196.95 168.05 196.95 166.65 L198.9 14.6 Q198.9 12.45 197.4 10.95 M197.8 10.65 Q199.35 12.3 199.35 14.6 L197.4 166.65 Q197.4 168.15 196.6 169.55 195.8 170.8 194.45 171.55 193.1 172.3 191.6 172.25 L117 169.45 117 169.05 6.8 164.85 Q4.5 164.8 2.95 163.15 1.35 161.45 1.4 159.15 L2.65 7 Q2.65 5.45 3.5 4.15 4.25 2.8 5.65 2.1 7 1.35 8.55 1.4 L117 5.55 117 5.95 193.9 8.85 Q196.2 8.95 197.8 10.65 M117 19.9 L117 20.35 185.2 23.15 183.15 156.35 117 154.2 117 153.85 15.45 150.5 15.45 15.7 117 19.9 M184.7 23.65 L117 20.85 117 20.4 15.9 16.2 15.9 150.05 117 153.4 117 153.7 182.65 155.85 184.7 23.65"/><path stroke="none" fill="rgb(255,255,204)" fill-opacity="0.06" d="M198.45 9.95 Q196.6 8 193.95 7.9 L117 5 117 4.6 8.6 0.45 Q6.75 0.4 5.2 1.25 3.6 2.1 2.65 3.65 1.7 5.2 1.7 7 L0.45 159.15 Q0.4 161.8 2.25 163.75 4.1 165.65 6.75 165.8 L117 170 117 170.4 191.55 173.2 Q193.3 173.25 194.95 172.4 196.5 171.5 197.4 170 198.3 168.45 198.35 166.7 L200.3 14.6 Q200.3 11.9 198.45 9.95 M198.8 9.65 Q200.75 11.7 200.75 14.6 L198.85 166.7 Q198.85 168.6 197.85 170.25 196.8 171.9 195.1 172.85 193.4 173.75 191.55 173.7 L117 170.9 117 170.5 6.75 166.3 Q3.9 166.15 1.9 164.05 -0.05 162 0 159.1 L1.25 7 Q1.25 5.05 2.3 3.4 3.3 1.7 4.95 0.85 6.65 -0.1 8.6 0 L127 4.55 127 4.95 193.95 7.45 Q196.8 7.55 198.8 9.65 M183.75 24.55 L181.75 154.9 117 152.8 117 152.45 16.85 149.15 16.85 17.2 117 21.35 117 21.8 183.75 24.55 M183.3 25 L117 22.25 117 21.85 17.3 17.7 17.3 148.7 127 152.3 127 152.65 181.25 154.4 183.3 25"/><path stroke="none" fill="rgb(255,255,204)" fill-opacity="0.13" d="M198.15 10.3 Q196.4 8.45 193.95 8.35 L117 5.45 117 5.05 8.55 0.9 Q6.9 0.9 5.45 1.7 3.95 2.5 3.1 3.9 2.2 5.3 2.2 7 L0.9 159.15 Q0.85 161.6 2.6 163.4 4.3 165.2 6.8 165.35 L117 169.55 117 169.95 191.55 172.75 Q193.2 172.8 194.7 172 196.15 171.2 197 169.75 197.85 168.3 197.9 166.65 L199.85 14.6 Q199.85 12.1 198.15 10.3 M198.45 9.95 Q200.3 11.9 200.3 14.6 L198.35 166.7 Q198.3 168.45 197.4 170 196.5 171.5 194.95 172.4 193.3 173.25 191.55 173.2 L117 170.4 117 170 6.75 165.8 Q4.1 165.65 2.25 163.75 0.4 161.8 0.45 159.15 L1.7 7 Q1.7 5.2 2.65 3.65 3.6 2.1 5.2 1.25 6.75 0.4 8.6 0.45 L117 4.6 117 5 193.95 7.9 Q196.6 8 198.45 9.95 M184.25 24.1 L182.2 155.35 117 153.25 117 152.9 16.4 149.6 16.4 16.7 117 20.9 117 21.3 184.25 24.1 M183.75 24.55 L117 21.8 117 21.35 16.85 17.2 16.85 149.15 117 152.45 117 152.8 181.75 154.9 183.75 24.55"/><path stroke="none" fill="rgb(255,255,204)" fill-opacity="0.2" d="M197.8 10.65 Q196.2 8.95 193.9 8.85 L117 5.95 117 5.55 8.55 1.4 Q7 1.35 5.65 2.1 4.25 2.8 3.5 4.15 2.65 5.45 2.65 7 L1.4 159.15 Q1.35 161.45 2.95 163.15 4.5 164.8 6.8 164.85 L117 169.05 117 169.45 191.6 172.25 Q193.1 172.3 194.45 171.55 195.8 170.8 196.6 169.55 197.4 168.15 197.4 166.65 L199.35 14.6 Q199.35 12.3 197.8 10.65 M198.15 10.3 Q199.85 12.1 199.85 14.6 L197.9 166.65 Q197.85 168.3 197 169.75 196.15 171.2 194.7 172 193.2 172.8 191.55 172.75 L117 169.95 117 169.55 6.8 165.35 Q4.3 165.2 2.6 163.4 0.85 161.6 0.9 159.15 L2.2 7 Q2.2 5.3 3.1 3.9 3.95 2.5 5.45 1.7 6.9 0.9 8.55 0.9 L117 5.05 117 5.45 193.95 8.35 Q196.4 8.45 198.15 10.3 M184.7 23.65 L182.65 155.85 117 153.7 117 153.4 15.9 150.05 15.9 16.2 117 20.4 117 20.85 184.7 23.65 M184.25 24.1 L117 21.3 117 20.9 16.4 16.7 16.4 149.6 117 152.9 117 153.25 182.2 155.35 184.25 24.1"/><path stroke="none" fill="rgb(255,255,204)" fill-opacity="0.73" d="M195.6 14.55 Q195.6 13.75 195.05 13.2 194.5 12.65 193.75 12.6 L117 9.7 117 9.3 8.4 5.15 7.4 5.4 6.7 6.1 6.45 7.05 5.15 159.15 Q5.1 159.9 5.7 160.5 6.2 161.05 6.95 161.1 L117 165.3 117 165.65 191.7 168.5 192.65 168.25 193.35 167.55 193.65 166.6 195.6 14.55 M196.05 14.55 L194.1 166.6 193.8 167.85 192.9 168.7 191.65 168.95 117 166.15 117 165.75 6.95 161.55 Q5.95 161.55 5.35 160.8 4.65 160.1 4.7 159.15 L5.95 7.05 Q5.95 6.4 6.3 5.8 6.6 5.25 7.25 5 7.75 4.65 8.4 4.7 L117 8.85 117 9.25 193.8 12.15 Q194.75 12.2 195.4 12.9 196.05 13.55 196.05 14.55 M188.55 20 L186.35 159.75 117 157.5 117 157.15 12.15 153.7 12.15 12.3 117 16.65 117 17.05 188.55 20 M117 17.55 L117 17.1 12.6 12.75 12.6 153.25 117 156.7 117 157 185.95 159.25 188.1 20.5 117 17.55"/><path stroke="none" fill="rgb(255,255,204)" fill-opacity="0.8" d="M195.6 14.55 L193.65 166.6 193.35 167.55 192.65 168.25 191.7 168.5 117 165.65 117 165.3 6.95 161.1 Q6.2 161.05 5.7 160.5 5.1 159.9 5.15 159.15 L6.45 7.05 6.7 6.1 7.4 5.4 8.4 5.15 117 9.3 117 9.7 193.75 12.6 Q194.5 12.65 195.05 13.2 195.6 13.75 195.6 14.55 M194.7 13.55 Q194.3 13.15 193.75 13.1 L117 10.2 117 9.8 8.35 5.65 7.65 5.8 7.15 6.35 Q6.9 6.65 6.9 7.05 L5.65 159.15 Q5.6 159.75 6 160.15 6.4 160.6 7 160.65 L117 164.85 117 165.2 191.7 168.05 192.45 167.85 193 167.3 193.2 166.6 195.1 14.55 Q195.1 13.95 194.7 13.55 M189.05 19.6 L186.8 160.25 117 157.95 117 157.65 11.65 154.15 11.65 11.8 117 16.2 117 16.6 189.05 19.6 M188.55 20 L117 17.05 117 16.65 12.15 12.3 12.15 153.7 117 157.15 117 157.5 186.35 159.75 188.55 20"/><path stroke="none" fill="rgb(255,255,204)" fill-opacity="0.66" d="M196.05 14.55 Q196.05 13.55 195.4 12.9 194.75 12.2 193.8 12.15 L117 9.25 117 8.85 8.4 4.7 Q7.75 4.65 7.25 5 6.6 5.25 6.3 5.8 5.95 6.4 5.95 7.05 L4.7 159.15 Q4.65 160.1 5.35 160.8 5.95 161.55 6.95 161.55 L117 165.75 117 166.15 191.65 168.95 192.9 168.7 193.8 167.85 194.1 166.6 196.05 14.55 M196.55 14.55 L194.6 166.65 Q194.6 167.4 194.2 168.1 L193.15 169.1 Q192.45 169.45 191.65 169.45 L117 166.65 117 166.25 6.9 162.05 Q5.75 162 4.95 161.15 4.15 160.3 4.2 159.15 L5.5 7.05 Q5.5 6.25 5.9 5.6 6.3 4.95 7 4.55 7.65 4.15 8.45 4.2 L117 8.35 117 8.75 193.8 11.65 Q194.95 11.7 195.75 12.55 196.55 13.35 196.55 14.55 M117 17.55 L188.1 20.5 185.95 159.25 117 157 117 156.7 12.6 153.25 12.6 12.75 117 17.1 117 17.55 13.1 13.25 13.1 152.8 117 156.25 117 156.55 185.45 158.8 187.55 20.9 117 18 117 17.55"/><path stroke="none" fill="rgb(255,255,204)" fill-opacity="0.93" d="M194.15 14.5 L194.05 14.15 Q193.9 14 193.7 14 L117 11.1 117 10.75 8.35 6.6 8.15 6.65 Q8 6.65 7.95 6.8 L7.85 7.05 6.6 159.2 6.7 159.55 7 159.7 117 163.9 117 164.25 191.75 167.1 192 167.05 192.2 166.85 192.25 166.6 194.15 14.5 M194.65 14.55 L192.7 166.6 192.55 167.1 192.25 167.4 191.7 167.55 117 164.7 117 164.35 7 160.15 6.35 159.9 Q6.05 159.6 6.1 159.2 L7.4 7.05 7.5 6.6 7.9 6.25 Q8.1 6.1 8.35 6.1 L117 10.25 117 10.65 193.75 13.55 Q194.1 13.55 194.35 13.85 L194.65 14.55 M190 18.65 L187.75 161.2 117 158.9 117 158.55 10.7 155.05 10.7 10.8 117 15.2 117 15.65 190 18.65 M189.5 19.1 L117 16.1 117 15.7 11.2 11.3 11.2 154.6 117 158.1 117 158.4 187.3 160.7 189.5 19.1"/><path stroke="none" fill="rgb(255,255,204)" d="M194.15 14.5 L192.25 166.6 192.2 166.85 192 167.05 191.75 167.1 117 164.25 117 163.9 7 159.7 6.7 159.55 6.6 159.2 7.85 7.05 7.95 6.8 Q8 6.65 8.15 6.65 L8.35 6.6 117 10.75 117 11.1 193.7 14 Q193.9 14 194.05 14.15 L194.15 14.5 M190 18.65 L117 15.65 117 15.2 10.7 10.8 10.7 155.05 117 158.55 117 158.9 187.75 161.2 190 18.65"/><path stroke="none" fill="rgb(255,255,204)" fill-opacity="0.86" d="M194.65 14.55 L194.35 13.85 Q194.1 13.55 193.75 13.55 L117 10.65 117 10.25 8.35 6.1 Q8.1 6.1 7.9 6.25 L7.5 6.6 7.4 7.05 6.1 159.2 Q6.05 159.6 6.35 159.9 L7 160.15 117 164.35 117 164.7 191.7 167.55 192.25 167.4 192.55 167.1 192.7 166.6 194.65 14.55 M194.7 13.55 Q195.1 13.95 195.1 14.55 L193.2 166.6 193 167.3 192.45 167.85 191.7 168.05 117 165.2 117 164.85 7 160.65 Q6.4 160.6 6 160.15 5.6 159.75 5.65 159.15 L6.9 7.05 Q6.9 6.65 7.15 6.35 L7.65 5.8 8.35 5.65 117 9.8 117 10.2 193.75 13.1 Q194.3 13.15 194.7 13.55 M189.5 19.1 L187.3 160.7 117 158.4 117 158.1 11.2 154.6 11.2 11.3 117 15.7 117 16.1 189.5 19.1 M189.05 19.6 L117 16.6 117 16.2 11.65 11.8 11.65 154.15 117 157.65 117 157.95 186.8 160.25 189.05 19.6"/></g><g xmlns="http://www.w3.org/2000/svg" id=":m53-1bon81ndm" bounds="138,4,100,127"><path stroke="none" fill="rgb(66,50,36)" d="M227 40.95 Q228.9 58.25 236.55 77.5 231.95 78.75 227.35 74.4 239.35 88.35 236.25 103.95 233.8 94.55 227.8 94 231.35 103.25 229.9 108.65 229.35 117.5 232.8 120.4 224.25 121.65 223.4 105.05 221 120.7 201.2 124.8 L198.75 114.65 Q188.1 126.25 176.85 130.3 175.95 122.4 179.5 112.6 169.6 119.9 173.05 128.65 162.65 128.2 156.1 104.45 L137.8 103.65 Q138.2 94.2 152.15 87.3 147.8 87.5 143.55 90.35 145.2 84.9 151.75 81.4 157.55 78 157.4 73.4 154.45 75.85 148.4 74.2 163.8 60.65 163.05 40.75 161.65 47.7 153.4 47.35 163.05 33.3 160.8 4.4 L224.05 3.45 227 40.95 Z"/><path stroke="none" fill="rgb(115,84,64)" d="M218.05 9 L217.55 15.2 Q217.05 21.35 217.05 24.75 L217.25 24.9 216.5 25.05 Q214.25 25.05 213.3 21.25 L212.85 17.85 212.3 22.8 Q211.55 28.95 211.55 29.75 L211.75 29.9 211 30.05 Q209.65 30.05 208.7 28.5 L207.8 26.55 Q206.4 27.8 206.5 30.7 206.55 34 206 35.05 204.1 34.95 201.05 32.55 198 30.25 198 29 L198.05 27.05 198.25 26.75 Q198.9 26.75 199.75 27.5 L198.8 27.55 200.4 30.6 Q202.05 32.65 205.3 33.55 205.2 31.9 205.85 29.05 L207 24.25 207.75 24.05 208.6 26 Q209.25 27.45 210 27.75 210.75 25.1 211.3 21.35 L212.25 14.3 212.55 14.3 212.9 15.35 213.05 14.5 213.75 14.5 214.2 18.5 Q214.6 21.25 215.55 23.05 L215.8 23.05 216.05 15.3 Q216.25 10.85 217 7.05 L217.75 7.05 Q218.05 7.6 218.05 9 M220.7 34.75 Q221.1 39.1 222.05 42 221.95 42.55 220.5 42.55 218.45 42.55 217.8 41.45 217.45 40.15 217 39.8 217.05 41.4 218.1 44.9 218.95 48 218.75 50 L218.75 50.5 Q218.75 50.75 218 50.75 214.8 50.75 212.85 46.75 L210.5 40.75 210.5 37.75 211.25 37.55 Q212 41.4 212.55 42.85 213.85 46.15 216.55 48.25 L216.75 48.2 216.75 47.35 216.3 44.65 Q215.8 42.55 215.8 41.9 L216 39 216.25 38.55 Q217.9 38.7 218.55 39.7 L219.3 41.25 Q220.3 40.15 220.3 39.75 L219.8 35.2 219.3 30.6 219.45 29.1 219.55 27.75 220.05 27.75 220.7 34.75 M171.5 23.9 L171.25 27.3 171.05 27.75 173.35 26.45 Q175 25.5 176.1 25.5 177.85 25.5 178.7 29.15 L179.25 33.3 179.5 34.55 180.3 34.3 Q183.6 31.8 185.1 28.55 186.4 25.9 186.75 21.8 187.55 22.9 187.55 25 L186.8 27.45 Q186.95 27.3 187.05 27.25 186.65 30.9 184.05 33.5 183.35 34.45 182.75 34.65 181.35 35.7 179.5 36.55 L178.55 36.65 Q178.4 36.65 178.35 36.35 L178.05 36.55 Q177.75 35.45 177.35 31.9 177 28.75 176.25 26.8 175.65 26.8 173.25 28.3 170.7 29.9 170.05 30 L170.4 25.5 Q170.65 22.75 169.75 21 L170.05 20.8 Q171.35 21.95 171.5 23.9 M171.6 44.25 L171.05 51.05 171.1 51.3 171.25 51.55 Q172.5 50.85 174.6 48.15 176.8 45.4 178.25 44.5 L179 49.15 179.25 53.8 179.3 54 Q181.6 51.95 183.3 48.25 L186.25 42.05 186.55 42.1 186.95 42.4 187.05 42.3 Q188.05 42.9 188 44.75 187.95 47.3 188.05 47.55 L188.25 47.75 Q188.5 46.25 189.7 43.7 190.95 41.1 192.05 39.8 L192.25 40.1 192.3 41 Q192.3 42.2 190.55 45.75 L188.25 50 187.05 50 186.9 46.35 186.8 42.95 Q185.7 45.25 184.4 49.8 182.65 54.2 178.5 56.75 177.45 55.8 177.5 54.7 L177.8 53.25 177.8 46.8 177.55 46.55 174.95 49.95 Q173.05 51.9 170.05 53 L169.85 52.5 169.8 51.4 170.75 39.2 Q171.6 41.4 171.6 44.25 M170.05 37.8 L170.65 38.95 169.75 38 170.05 37.8 M192.3 72.25 L193.8 70.2 Q194.9 68.8 196.75 68.3 L198.4 71.8 Q200.05 74.45 203 75 L202.85 63.15 Q202.85 60.45 203 58.1 L204.35 59.5 204.4 59.35 205 58.8 Q205.7 59.7 207.1 62.85 208.8 65.75 211.55 67 211.75 67.85 211.75 66.6 L210.65 62.25 Q209.55 58 209.55 56.1 L209.65 54.9 209.75 54.3 210.05 54.3 Q210.65 57.85 213.25 66 L213.25 68.25 211.85 68.55 Q208.65 68.55 206.2 64.5 204.6 61.85 204.35 60.15 L204.8 73.65 Q204.8 76.8 203.5 77.8 L199.2 74.9 Q196.05 72.45 195.75 70.8 194.8 71.25 194.25 72.85 L193.55 75.75 Q193.85 76.05 192.6 76.05 190.8 76.05 189.45 72.2 188.4 69.1 188.25 66 187.85 66.1 184.95 68.05 L182 70 179.75 69.8 Q179.5 70.35 179.5 69.1 179.5 68.4 180.9 67.15 182.25 65.9 182.25 62.3 L182.55 62.3 182.8 65.75 182.2 67 Q181.5 68.15 181.3 68.75 181.95 68.05 188.5 64.3 L189.95 68.2 Q190.9 71.15 192.3 72.25 M165.2 53.05 L165.3 53.75 Q165.3 55.4 163.8 59.6 162.4 63.6 161.55 64.8 L161.55 65.05 Q163.1 64.7 164.4 62.85 165.6 61.05 167.05 60.8 L167.25 67.55 167.15 71.15 166.95 72.35 167.95 70.8 Q169.85 68.05 172.05 66.3 L172.25 66.85 Q171.7 70.5 166.55 74.5 166.3 75.05 166.3 74.05 L165.75 74.75 165.75 63.8 162.25 66.5 160.05 66.5 Q159.8 66.9 159.8 65.65 159.8 63.75 161.6 59.35 163.5 54.75 165.05 53.25 L165.2 53.05 M179.05 84.8 Q180 84.7 184.45 82.1 L188.75 79.55 Q190.25 79.55 190.9 84.1 191.3 87 191.3 91.05 192.95 89.65 195.5 83.25 L196.25 83.05 196.4 83.3 196.3 82.3 196.55 82 Q198.55 83.55 199.55 88.3 L199.55 88.5 Q200.25 87.4 200.2 83.45 200.15 80.2 202.05 79.3 201.8 81.05 201.65 84.65 L201.25 90.25 Q201.1 90.55 199.85 90.55 198.8 90.55 197.5 87.2 L196.75 85 Q196.75 86.55 194.75 89.8 192.6 93.3 191 93.3 L189.95 93.2 189.8 93.05 Q189.4 91.35 189.1 87.85 L188.5 82.25 Q186.75 82.8 183.7 84.2 180.1 85.85 179.5 86.75 L177.65 86.75 Q177.25 86.75 177.25 86 177.25 84.65 179.05 81.65 180.7 78.9 180.3 75.75 L181.25 75.5 181.85 75.75 Q182.05 75.95 182.05 76.75 182.05 78.55 181.05 80.9 L179.05 84.8 M163.6 80 L163.75 80.75 Q163.75 81.95 161.1 85.75 L158 90 157.55 90.3 161.55 89.15 Q163.05 88.5 163.75 88.5 165 88.5 164.8 88.75 166.15 99.65 166.75 102.55 L166.8 102.75 Q166.5 100.65 169.65 97.7 172.65 94.9 176.55 93.3 166.95 102.15 168.3 107.55 L168.35 107.8 Q168.3 108 167.5 108 165.05 108 163.85 101.3 163 96.65 163 91 L163 90.8 Q162 90.85 159.75 91.75 L156 93.3 154.25 92 Q154.25 90.95 157.05 86.6 160.3 81.65 163.25 79.8 L163.6 80 M225.55 60.8 Q225.65 61.55 227.2 65.2 228.55 68.35 228.55 71 L224.05 71 223 69.9 222.3 68.75 222.05 68.75 Q222.45 71 224.7 75 L228.55 81.5 Q228.5 82.1 228.25 82.3 L227 82.55 Q223.65 82.55 218.45 77.85 L213.05 72.55 213.2 72.3 214.25 72.05 Q214.75 72.05 219.2 75.85 L225.55 81.25 226.75 81.05 Q220.1 70.4 219.3 64.25 L219.2 64.05 Q219.2 63.8 220 63.8 220.35 63.8 222.2 66.25 L224.5 69.55 227 69.55 Q225.65 67.75 225.25 66.35 225 65.45 225 63.75 225 62 225.25 60.8 L225.55 60.8 M221.25 94.5 Q221.25 96.9 219.6 100.25 217.6 104.25 215.05 104.5 L214.7 100.3 214.4 98.25 Q213.5 101.3 211.35 104.85 207.45 111.25 202.5 114.3 201.5 112.95 201.6 108.65 201.7 104.45 200.05 102.55 L195.4 108.15 Q191.9 112.25 188.5 112.25 L186.4 112.15 185.25 112.05 185.25 109.5 Q187.75 103.7 186.3 101.25 L187 100.8 Q187.45 101.2 187.85 102.9 L188.25 105.3 187.6 107.8 186.75 110.25 186.75 110.55 Q188.7 110.05 194.3 104.95 199.65 100.05 200.5 100.05 203.3 100.05 203.3 110.8 L203.3 111.05 Q208.25 107.55 211.45 99.95 214.6 92.3 214.75 93.5 L214.9 93.3 Q215.05 93.2 215.05 94 L214.9 96.15 Q216.05 97.4 216.1 99.2 L216.05 102.55 216.05 102.75 Q217.9 99.9 219.05 96.5 220.3 92.85 220.25 89.8 L220.55 89.8 Q221.25 92.15 221.25 94.5"/><path stroke="none" fill="rgb(173,139,107)" d="M159.8 4.5 Q159.75 4.05 160.05 3.75 160.3 3.45 160.75 3.4 161.15 3.35 161.45 3.65 L161.8 4.35 161.8 4.4 Q164.05 33.1 154.6 47.35 L154.25 47.95 153.85 48.25 154.25 46.9 154 47.25 153.25 47 Q155.55 43.15 157.45 36.85 159.25 31.4 159.2 29.2 160.85 17.8 159.8 4.5 M228.55 93.7 L230 98.65 Q231.4 104.05 230.6 107.05 230 109.25 229.95 109.75 L229.65 109.65 229.45 109.55 229.5 108.05 229.45 107.25 229.5 105.8 229.3 104.55 Q229.15 100.25 226.9 94.35 L226.85 93.75 228.55 93.7 M229.05 75.25 Q229.45 75.85 230 76.1 236.9 85.1 237.75 94.8 L237.75 95.75 236.85 102.05 235.9 104.45 236 103 235.7 101 Q237.2 87.35 226.6 75.05 226.3 74.75 226.35 74.35 226.4 73.95 226.7 73.7 227.65 75.05 229.05 75.25 M162.1 43.4 L163.9 40.2 164.05 40.7 Q164.8 60.75 149.6 74.5 L149.05 74.95 148.35 75.2 148.1 75.15 150.35 72.25 152.7 69.25 155.15 65.25 Q161.85 55.65 162.1 43.45 L162.1 43.4 M224.35 3.75 Q224.6 3.7 227.4 40.05 L227.65 40.2 228 40.85 Q229.85 58 232.45 65.8 235 73.6 236 75.9 L236.6 77.65 Q236.25 77.05 236.15 77.7 236.05 78.3 232 68.4 228.2 59.15 226.3 43.45 225.4 38.45 224.5 25.4 L223.35 4.25 223.4 3.25 Q224.3 3.25 224.55 3.55 224.85 3.85 224.85 4.75 L224.6 4.75 224.5 3.85 224.35 3.75 224.25 3.65 224.1 3.7 224.35 3.75 M159.15 28.75 L159 28.15 159.1 28.3 159.15 28.75 M154.75 46.05 L154.7 46.5 155.15 45.35 154.75 46.05 M153.05 87.5 Q152.95 87.55 152.8 87.7 141 93.9 138.55 103.1 L138.2 103.5 137.4 103.6 137.3 103.6 138.25 101.1 138.95 98.2 Q142.7 91.55 150.95 87.1 151.4 87.5 152.45 87.5 L153.05 87.5 M157.25 74 Q157.9 74 158.4 73.65 158.5 78.6 152.25 82.3 146.1 85.55 144.5 90.65 L144.05 91.25 143.85 91.3 144 88.7 144.5 87.7 Q147.5 82.55 151.3 80.55 L151.25 80.55 Q156.2 77.65 156.4 73.85 L157.25 74"/></g><g xmlns="http://www.w3.org/2000/svg" id=":m41-1bon81ndm" bounds="0,0,99,32"><path fill="rgb(227,227,227)" stroke="rgb(204,204,204)" stroke-width="1" stroke-linecap="round" stroke-linejoin="round" d="M98.1 31.45 L0 31.45 0 0 98.1 0 98.1 31.45 Z"/></g><g xmlns="http://www.w3.org/2000/svg" id=":m42-1bon81ndm" bounds="2,4,79,14"><text x="0" y="16" font-family="&apos;Verdana&apos;" font-size="16" fill="#666666" style="white-space:pre">SEARCH</text></g><g xmlns="http://www.w3.org/2000/svg" id=":m55-1bon81ndm" bounds="-44,-56,90,108"><path stroke="none" fill="rgb(0,0,0)" d="M36.9 -47.05 Q34.6 -49.05 33.7 -45.6 32.75 -42.15 35.2 -45.95 34.7 -41.95 32.95 -42.65 31.25 -43.3 32.7 -47.9 34.1 -52.45 38.35 -48.95 43.65 -45.05 40.05 -36.7 37.15 -29.1 27.45 -23.95 44.15 -18.2 45.65 -2.85 47.1 12.45 31.3 23.05 L29.65 24.2 Q29.95 32.25 33.55 32.35 37.15 32.4 38.5 30.3 39.8 28.2 40.4 24.8 41 21.35 39.95 21.5 38.85 21.6 38.05 25.15 36.95 20.1 39.95 18.9 43 17.65 43.95 21.45 45.55 28.05 41.05 35.45 36.5 42.95 26.9 46.95 19.35 50 8.5 50.85 -12.75 52.5 -26.4 50.75 L-30.05 50.2 Q-44.25 47.55 -43.75 32.7 -43.35 24.7 -37.05 22.1 -32 20.55 -34.95 31.25 -35.3 22.2 -38.55 26.1 -41.8 30 -39.35 36.2 -35.55 40.55 -31.05 36.65 -26.6 32.75 -26.55 28.4 -26.45 24.8 -27.15 21.2 -49.55 23.35 -42.8 10.5 -34.9 12.4 -33.1 8.3 -42 -4.8 -36.9 -17.4 -31.7 -30.45 -20.9 -36.1 L-18.8 -37.1 Q-20.2 -40.1 -20.05 -43.85 -19.95 -46.5 -19.25 -48.45 L-18.15 -50.6 Q-14.2 -54.55 -8.8 -56 L-8.05 -56.25 Q-4.6 -57.35 -0.95 -54.3 2.65 -51.35 4.4 -45.9 5.45 -42.45 5.3 -39.35 L5.25 -38.65 Q14.45 -41.35 25.25 -37.8 31.2 -35.9 36.65 -40.5 39.2 -45.05 36.9 -47.05 M3.75 -38.15 L4.7 -38.5 4.75 -39 Q4.85 -41.75 3.9 -44.75 2.4 -49.55 -0.8 -52.2 -4.05 -54.9 -7.1 -53.95 -10.2 -53 -11.3 -48.95 -12.4 -44.9 -10.9 -40.15 -9.45 -35.4 -6.2 -32.7 L-6.05 -32.55 Q-1.4 -36.35 3.75 -38.15 M26.1 -23.25 Q12.95 -16.75 -11.6 -14.25 -3.6 5.05 -5.95 24.4 6.35 34.55 7.85 45.2 14.8 31.1 29.25 21.6 44.65 11.7 42.85 -2.4 41.3 -17.75 26.1 -23.25 M-14.8 -51 L-16.8 -49.85 Q-18 -47.6 -18.3 -44.2 -18.5 -35.25 -9.1 -29.15 L-7.7 -30.9 Q-18.7 -39.85 -14.8 -51 M-12.1 -52.5 L-13.25 -51.85 Q-17.65 -40.65 -7.05 -31.65 L-6.75 -32 -7.05 -32.25 Q-10.7 -35.3 -12.4 -40.65 -14.1 -46.05 -12.8 -50.6 L-12.1 -52.5 M-3.35 -45.95 Q-4 -46.55 -4.6 -46.35 -5.25 -46.2 -5.55 -45.35 -5.8 -44.55 -5.55 -43.6 -5.3 -42.7 -4.65 -42.1 -4 -41.55 -3.35 -41.7 -2.75 -41.9 -2.5 -42.7 -2.2 -43.5 -2.45 -44.45 -2.7 -45.4 -3.35 -45.95 M-1.95 -44.55 Q-1.6 -43.15 -1.95 -41.95 -2.25 -40.8 -3.05 -40.6 -3.9 -40.4 -4.8 -41.2 -5.65 -42.1 -6 -43.45 -6.4 -44.9 -6.1 -46.05 -5.75 -47.25 -4.9 -47.45 -4.1 -47.65 -3.25 -46.8 -2.35 -45.95 -1.95 -44.55 M-19.3 -34.55 Q-25.1 -31.35 -29.25 -25.45 L-29.85 -24.55 Q-31.7 -21.8 -33.15 -18.5 L-33.7 -17.25 -34.1 -16.35 Q-39 -3.9 -31.45 7.65 L-29.95 9.8 -29.75 10.05 -27.75 4.15 -26.6 1.45 Q-23.15 -6.35 -18 -12.45 L-16.85 -13.8 Q-14.65 -20.25 -11.7 -25.2 L-10.8 -26.7 -9.7 -28.35 -9.95 -28.5 Q-15.35 -31.35 -17.85 -35.3 L-19.3 -34.55 M-30.35 12 L-31.85 10.1 Q-35.65 13.55 -41.45 12.5 -46.4 20.75 -27.45 19.95 -28.4 15.95 -30.35 12"/><path stroke="none" fill="rgb(231,223,169)" d="M3.75 -38.15 Q-1.4 -36.35 -6.05 -32.55 L-6.2 -32.7 Q-9.45 -35.4 -10.9 -40.15 -12.4 -44.9 -11.3 -48.95 -10.2 -53 -7.1 -53.95 -4.05 -54.9 -0.8 -52.2 2.4 -49.55 3.9 -44.75 4.85 -41.75 4.75 -39 L4.7 -38.5 3.75 -38.15 M-1.95 -44.55 Q-2.35 -45.95 -3.25 -46.8 -4.1 -47.65 -4.9 -47.45 -5.75 -47.25 -6.1 -46.05 -6.4 -44.9 -6 -43.45 -5.65 -42.1 -4.8 -41.2 -3.9 -40.4 -3.05 -40.6 -2.25 -40.8 -1.95 -41.95 -1.6 -43.15 -1.95 -44.55"/><path stroke="none" fill="rgb(187,177,159)" d="M26.1 -23.25 Q41.3 -17.75 42.85 -2.4 44.65 11.7 29.25 21.6 14.8 31.1 7.85 45.2 6.35 34.55 -5.95 24.4 -3.6 5.05 -11.6 -14.25 12.95 -16.75 26.1 -23.25"/><path stroke="none" fill="rgb(102,102,102)" d="M-12.1 -52.5 L-12.8 -50.6 Q-14.1 -46.05 -12.4 -40.65 -10.7 -35.3 -7.05 -32.25 L-6.75 -32 -7.05 -31.65 Q-17.65 -40.65 -13.25 -51.85 L-12.1 -52.5"/><path stroke="none" fill="rgb(153,153,153)" d="M-14.8 -51 Q-18.7 -39.85 -7.7 -30.9 L-9.1 -29.15 Q-18.5 -35.25 -18.3 -44.2 -18 -47.6 -16.8 -49.85 L-14.8 -51"/><path stroke="none" fill="rgb(245,242,222)" d="M-3.35 -45.95 Q-2.7 -45.4 -2.45 -44.45 -2.2 -43.5 -2.5 -42.7 -2.75 -41.9 -3.35 -41.7 -4 -41.55 -4.65 -42.1 -5.3 -42.7 -5.55 -43.6 -5.8 -44.55 -5.55 -45.35 -5.25 -46.2 -4.6 -46.35 -4 -46.55 -3.35 -45.95"/><path stroke="none" fill="rgb(163,53,48)" d="M-11.75 -27.1 Q-17.35 -29.5 -19.3 -34.55 L-17.85 -35.3 Q-15.35 -31.35 -9.95 -28.5 L-11.75 -27.1 M-29.25 -25.45 Q-25.7 -20.65 -21.3 -17.05 L-22.45 -15.4 Q-27.15 -19.2 -29.85 -24.55 L-29.25 -25.45 M-16.85 -13.8 L-18 -12.45 -21.1 -14.4 -20 -16 -16.85 -13.8 M-26.6 1.45 L-27.75 4.15 -28.6 3.1 -27.75 0.05 -26.6 1.45 M-33.7 -17.25 L-33.15 -18.5 Q-34.6 -9.8 -29.1 -1.8 L-30 1.15 Q-36.1 -7.8 -33.7 -17.25 M-30.35 12 Q-28.4 15.95 -27.45 19.95 -46.4 20.75 -41.45 12.5 -35.65 13.55 -31.85 10.1 L-30.35 12"/><path stroke="none" fill="rgb(211,111,105)" d="M-19.3 -34.55 Q-17.35 -29.5 -11.75 -27.1 -17.25 -22.6 -21.3 -17.05 -25.7 -20.65 -29.25 -25.45 -25.1 -31.35 -19.3 -34.55 M-11.7 -25.2 Q-14.65 -20.25 -16.85 -13.8 L-20 -16 Q-16.45 -21 -11.7 -25.2 M-18 -12.45 Q-23.15 -6.35 -26.6 1.45 L-27.75 0.05 Q-25.4 -7.85 -21.1 -14.4 L-18 -12.45 M-27.75 4.15 L-29.75 10.05 -29.95 9.8 Q-29.45 6.35 -28.6 3.1 L-27.75 4.15 M-31.45 7.65 Q-39 -3.9 -34.1 -16.35 L-33.7 -17.25 Q-36.1 -7.8 -30 1.15 -30.9 4.3 -31.45 7.65 M-33.15 -18.5 Q-31.7 -21.8 -29.85 -24.55 -27.15 -19.2 -22.45 -15.4 -26.65 -9.2 -29.1 -1.8 -34.6 -9.8 -33.15 -18.5"/><path stroke="none" fill="rgb(123,43,36)" d="M-21.3 -17.05 Q-17.25 -22.6 -11.75 -27.1 L-9.95 -28.5 -9.7 -28.35 -10.8 -26.7 -11.7 -25.2 Q-16.45 -21 -20 -16 L-21.1 -14.4 Q-25.4 -7.85 -27.75 0.05 L-28.6 3.1 Q-29.45 6.35 -29.95 9.8 L-31.45 7.65 Q-30.9 4.3 -30 1.15 L-29.1 -1.8 Q-26.65 -9.2 -22.45 -15.4 L-21.3 -17.05"/></g><g xmlns="http://www.w3.org/2000/svg" id=":m56-1bon81ndm" bounds="-3,-6,7,13"><path stroke="none" fill="rgb(0,0,0)" d="M2.7 -1.1 Q3.7 1.45 3.7 3.55 3.65 5.65 2.55 6.15 1.45 6.6 -0.05 5.1 -1.55 3.6 -2.6 1.05 -3.65 -1.5 -3.65 -3.6 -3.6 -5.7 -2.45 -6.15 -1.35 -6.65 0.1 -5.1 1.65 -3.65 2.7 -1.1 Z"/></g><g xmlns="http://www.w3.org/2000/svg" id=":m82-1bon81ndm" bounds="-2,-4,7,9"><path stroke="none" fill="rgb(0,0,0)" d="M3.6 1.8 Q3.45 3.4 2.8 4.6 3.2 3.4 2.8 2.2 0.5 3.7 -2.75 3 1 2.65 2.8 1.15 0.45 -1.9 -0.15 -4.75 1.55 -1.4 4.45 1.3 L3.6 1.8 Z"/><path fill="none" stroke="rgb(0,0,0)" stroke-width="0.25" stroke-linecap="round" stroke-linejoin="round" d="M3.6 1.8 Q3.45 3.4 2.8 4.6 3.2 3.4 2.8 2.2"/></g><g xmlns="http://www.w3.org/2000/svg" id=":m88-1bon81ndm" bounds="-3,-6,7,13"><path stroke="none" fill="rgb(0,0,0)" d="M1.3 -3.7 L2.7 -1.1 Q3.7 1.45 3.7 3.55 3.65 5.65 2.55 6.15 1.45 6.6 -0.05 5.1 -1.55 3.6 -2.6 1.05 L-3.4 -1.5 Q-2.05 -1.75 -0.1 -3.8 1.8 -5.85 1.7 -6.8 1.95 -5 1.3 -3.7 Z"/></g><g xmlns="http://www.w3.org/2000/svg" id=":m57-1bon81ndm" bounds="-5,-4,11,9"><path stroke="none" fill="rgb(0,0,0)" d="M-1.35 -0.3 Q-5.5 0.8 -5.35 -4.45 -4.3 -0.5 -0.2 -1.75 3.9 -3 5.15 -1.2 6.35 0.55 0.9 4.5 3.75 0.85 3.25 -0.25 2.75 -1.4 -1.35 -0.3 Z"/></g><g xmlns="http://www.w3.org/2000/svg" id=":m59-1bon81ndm" bounds="-1,-3,3,7"><path stroke="none" fill="rgb(0,0,0)" d="M-0.5 3.55 Q-3.85 -1.55 1.75 -3.55 -0.95 0 -0.5 3.55 Z"/></g><g xmlns="http://www.w3.org/2000/svg" id=":m61-1bon81ndm" bounds="-20,-11,41,20"><path stroke="none" fill="rgb(0,0,0)" d="M20.4 -8.65 Q15.85 -3.65 10.9 -1.15 1.05 7.95 -3.5 8.45 -8.05 8.9 -18.55 -4.5 -19.25 -2.45 -19.35 0.1 -23.15 -8.45 -13.1 -11.1 -16.25 -9.35 -17.8 -6.25 1.4 5.75 20.4 -8.65 M-16.75 -4.2 Q-9.9 3.45 -4.55 5.15 0.75 6.85 7.85 0.15 -4.1 4.3 -16.75 -4.2"/><path stroke="none" fill="rgb(255,255,255)" d="M-16.75 -4.2 Q-4.1 4.3 7.85 0.15 0.75 6.85 -4.55 5.15 -9.9 3.45 -16.75 -4.2"/></g><g xmlns="http://www.w3.org/2000/svg" id=":m84-1bon81ndm" bounds="-15,-3,35,9"><path stroke="none" fill="rgb(0,0,0)" d="M-8.05 -1.75 Q-12.5 -1.7 -15.85 0.6 L-15.25 -0.8 Q-15.5 -2.05 -9.4 -2.9 -3.35 -3.75 5.15 -2.15 13.65 -0.6 19.3 -3.6 15.7 -0.15 10.65 0.25 L1.3 -0.6 -8.05 -1.75 M2 6 Q2.65 5.95 4.95 4.3 6.9 2.85 8.2 3.6 3.55 5.95 2 6"/></g><g xmlns="http://www.w3.org/2000/svg" id=":m118-1bon81ndm" bounds="-20,-15,43,35"><path stroke="none" fill="rgb(0,0,0)" d="M-10.2 -4.35 L-10.05 -4.25 Q-7.25 -3.25 -3.85 -2.8 0.2 -2.25 9.4 -2.45 L10.8 -4.5 -4.6 -5.05 Q-7.75 -5.65 -10.35 -6.75 -14.7 -8.65 -17.4 -12.05 -17.25 -9.3 -15.5 -7.25 -13.2 -5.45 -10.2 -4.35 M-1.1 19.6 Q-2.9 20.05 -4.95 19.15 -0.6 19.65 3.7 16.25 1.35 18.85 -1.1 19.6 M0.65 -6.4 Q10.55 -5.45 22.4 -8.65 22.1 -8.15 16.5 -5.6 11.15 -3.15 10.9 -1.95 7.75 6.7 6.25 9.4 2.65 15.55 -1 16.4 -5.65 17.45 -8 14.7 L-11.7 10.05 Q-13.8 6.1 -16.2 -1.4 -18.75 -9.55 -20.5 -13.25 L-18.3 -15.7 Q-11.8 -7.65 0.65 -6.4 M-6.5 12.65 Q-4.8 14.3 -1.9 13.8 1 13.25 2.7 11.7 4.35 10.15 5.25 7.65 3.7 6.75 1.3 6.35 L-1.95 6.65 Q-0.6 7.85 0.1 9.35 -0.75 7.9 -4.25 7 -7.8 6.05 -10.05 9.05 L-6.5 12.65"/><path stroke="none" fill="rgb(255,255,255)" d="M-10.35 -6.75 Q-7.75 -5.65 -4.6 -5.05 L10.8 -4.5 9.4 -2.45 Q0.2 -2.25 -3.85 -2.8 -7.25 -3.25 -10.05 -4.25 L-10.2 -4.35 -10.35 -6.75"/><path stroke="none" fill="rgb(232,180,176)" d="M-6.5 12.65 L-10.05 9.05 Q-7.8 6.05 -4.25 7 -0.75 7.9 0.1 9.35 -0.6 7.85 -1.95 6.65 L1.3 6.35 Q3.7 6.75 5.25 7.65 4.35 10.15 2.7 11.7 1 13.25 -1.9 13.8 -4.8 14.3 -6.5 12.65"/><path stroke="none" fill="rgb(234,234,234)" d="M-10.2 -4.35 Q-13.2 -5.45 -15.5 -7.25 -17.25 -9.3 -17.4 -12.05 -14.7 -8.65 -10.35 -6.75 L-10.2 -4.35"/></g><g xmlns="http://www.w3.org/2000/svg" id=":m85-1bon81ndm" bounds="-5,-3,11,7"><path stroke="none" fill="rgb(0,0,0)" d="M5.05 -3.55 Q-3.95 -2.2 -4.85 3.75 -6.6 -4.95 5.05 -3.55 Z"/></g><g xmlns="http://www.w3.org/2000/svg" id=":m62-1bon81ndm" bounds="-9,-26,41,21"><path stroke="none" fill="rgb(0,0,0)" d="M29.2 -24.4 L-5.5 -23.25 -7.4 -16.5 Q-2.15 -10.15 7.85 -8.35 22.25 -9.05 27.85 -18.35 28.85 -21.35 29.2 -24.4 M31.5 -26.85 Q31.1 -20.95 28.5 -14.4 19.75 -5.1 7.2 -6.05 -2.55 -7.45 -9.8 -15.65 -8.9 -20.7 -6.95 -25.8 L31.5 -26.85"/><path stroke="none" fill="rgb(85,92,183)" d="M29.2 -24.4 Q28.85 -21.35 27.85 -18.35 22.25 -9.05 7.85 -8.35 -2.15 -10.15 -7.4 -16.5 L-5.5 -23.25 29.2 -24.4"/></g><g xmlns="http://www.w3.org/2000/svg" id=":m64-1bon81ndm" bounds="-9,-16,49,23"><path stroke="none" fill="rgb(0,0,0)" d="M3.15 -6.45 L3.2 -6.25 Q15.95 -3.45 27.95 -7.5 32.65 -11.75 36.15 -12.05 40.2 -12.15 39.35 -8.65 37.35 1.2 24.55 4.95 11.7 8.65 3.25 3.95 -2.3 1.05 -3.8 -6.6 -8.7 -9.1 -9 -13.65 -9.3 -18.2 -4 -15.8 1.35 -13.45 3.15 -6.45 M35.45 -4.7 Q37.55 -10.05 34.35 -9.65 31.15 -9.25 21.85 2.45 14.6 -1.8 6.35 -1.85 14.45 -4.15 21.15 0.05 L23.7 -3.1 19.5 -2.5 24.9 -4.4 25.6 -5.05 Q15.4 -2.65 2.25 -4.2 0.45 -10.7 -3.35 -13 -7.2 -15.3 -7 -12.65 -6.8 -10 -2.2 -8.05 -1.3 -1.35 2.8 1.65 11.35 6.9 22.35 3.75 33.35 0.6 35.45 -4.7"/><path stroke="none" fill="rgb(187,177,159)" d="M35.45 -4.7 Q33.35 0.6 22.35 3.75 11.35 6.9 2.8 1.65 -1.3 -1.35 -2.2 -8.05 -6.8 -10 -7 -12.65 -7.2 -15.3 -3.35 -13 0.45 -10.7 2.25 -4.2 15.4 -2.65 25.6 -5.05 L24.9 -4.4 19.5 -2.5 23.7 -3.1 21.15 0.05 Q14.45 -4.15 6.35 -1.85 14.6 -1.8 21.85 2.45 31.15 -9.25 34.35 -9.65 37.55 -10.05 35.45 -4.7"/></g><g xmlns="http://www.w3.org/2000/svg" id=":m87-1bon81ndm" bounds="-3,-32,28,41"><path stroke="none" fill="rgb(0,0,0)" d="M4.95 -15.5 Q2.65 -18.4 0.1 -14.9 -2.35 -11.3 -1.95 -6.35 -0.6 1.4 7.7 3.85 8.3 1.7 9.1 0.8 4.2 2.35 5.35 -2.7 4.1 -1.3 2.65 -1.4 4.5 -2.85 4.35 -4.7 L2.95 -6.05 Q-0.05 -9.4 2.5 -13.85 0.95 -8.45 6.15 -5.95 8.55 -5.9 8.3 -8.8 7.25 -13.05 4.95 -15.5 M12.45 -13.1 L17.4 -17.55 Q22.55 -21.85 22.1 -27.15 21.6 -32.55 16.95 -25.8 12.3 -19.15 7.75 -14.55 9.5 -11.9 9.7 -8.55 11.9 -10.35 14.4 -10 11.5 -8.85 9.8 -7.1 9.2 -5.05 7.55 -3.95 L7.5 -3.85 Q6.7 -0.85 8.95 -1 12.1 -1.75 14.65 -4.45 16.25 -6 17.55 -8.2 20.55 -14.5 12.45 -13.1 M12.9 -1.2 Q9.8 1.5 9.55 4 9.4 5.8 11.45 6.1 15.8 5.35 17.8 0.55 19.75 -4.3 16.15 -4.4 14 -1.85 12.9 -1.2 M17.7 -5.8 Q22.85 -5.25 18.2 3.05 15.1 7.35 11.55 8.2 8 9.05 7.6 5.5 -0.35 3.55 -2.8 -2.7 -5.5 -9.9 -1.2 -15.7 3 -21.45 6.8 -15.95 13.65 -22.95 17.45 -29.55 22.8 -36.25 24.6 -27.7 24.95 -19.7 15.85 -14.65 24.05 -15.3 17.7 -5.8"/><path stroke="none" fill="rgb(187,177,159)" d="M12.45 -13.1 Q20.55 -14.5 17.55 -8.2 16.25 -6 14.65 -4.45 12.1 -1.75 8.95 -1 6.7 -0.85 7.5 -3.85 L7.55 -3.95 Q9.2 -5.05 9.8 -7.1 11.5 -8.85 14.4 -10 11.9 -10.35 9.7 -8.55 9.5 -11.9 7.75 -14.55 12.3 -19.15 16.95 -25.8 21.6 -32.55 22.1 -27.15 22.55 -21.85 17.4 -17.55 L12.45 -13.1 M4.95 -15.5 Q7.25 -13.05 8.3 -8.8 8.55 -5.9 6.15 -5.95 0.95 -8.45 2.5 -13.85 -0.05 -9.4 2.95 -6.05 L4.35 -4.7 Q4.5 -2.85 2.65 -1.4 4.1 -1.3 5.35 -2.7 4.2 2.35 9.1 0.8 8.3 1.7 7.7 3.85 -0.6 1.4 -1.95 -6.35 -2.35 -11.3 0.1 -14.9 2.65 -18.4 4.95 -15.5 M12.9 -1.2 Q14 -1.85 16.15 -4.4 19.75 -4.3 17.8 0.55 15.8 5.35 11.45 6.1 9.4 5.8 9.55 4 9.8 1.5 12.9 -1.2"/></g><g xmlns="http://www.w3.org/2000/svg" id=":m120-1bon81ndm" bounds="-5,-26,39,31"><path stroke="none" fill="rgb(0,0,0)" d="M16 -13.6 Q18.5 -16 23.5 -18.75 29.95 -21.65 33.55 -16.95 35.7 -11.6 26.15 -9.35 22.35 -8.5 17.25 -5.7 21.9 -6.5 25.9 -5.2 30.4 -3.5 30.45 0.8 29.85 4.5 23.85 2.8 17.85 1.05 14.3 2 4.45 7.35 -2.1 -0.75 -5 -4.95 -2.85 -10.1 -0.7 -15.25 -3.4 -18.3 -6.1 -21.45 -4.3 -23.75 -1.95 -25.9 0.8 -24.2 0.85 -25.3 2.25 -26 8.5 -27.45 14.6 -23.4 17.4 -20.35 16 -13.6 M8.25 -13.5 Q9 -15.25 8.95 -17.4 L6.45 -17.9 Q6.6 -15.95 5.85 -13.45 L8.25 -13.5 M4.75 -20.9 Q7.15 -19.35 10.15 -18.65 10.55 -14.8 9.05 -12.35 6.4 -11.2 4 -12.3 6.15 -18.6 1.45 -22.05 -1.1 -23.5 -2.5 -22.25 -3.55 -20.9 -1.7 -18.45 0.8 -15.25 -0.8 -11.4 -3.4 -5.5 -0.85 -1.85 4.35 5.05 13.5 0.4 L22.7 0.7 Q29.4 2.1 28.3 -0.9 27.2 -3.95 21.9 -4.55 L12.7 -4.15 Q13.45 -5.3 15 -5.55 18.35 -8.9 24.65 -10.85 31.9 -12.65 31.1 -16 28.8 -19.5 22.8 -16.5 18.4 -14.15 12.75 -9.8 13.2 -11.1 14.25 -12.15 15.8 -20 13.25 -22.25 9.05 -25.1 4.2 -24.3 1.85 -22.85 4.75 -20.9 M9.65 -4.75 Q6.3 -6.6 2.3 -4.15 5.6 -9.15 9.65 -4.75"/><path stroke="none" fill="rgb(187,177,159)" d="M9.65 -4.75 Q5.6 -9.15 2.3 -4.15 6.3 -6.6 9.65 -4.75 M4.75 -20.9 Q1.85 -22.85 4.2 -24.3 9.05 -25.1 13.25 -22.25 15.8 -20 14.25 -12.15 13.2 -11.1 12.75 -9.8 18.4 -14.15 22.8 -16.5 28.8 -19.5 31.1 -16 31.9 -12.65 24.65 -10.85 18.35 -8.9 15 -5.55 13.45 -5.3 12.7 -4.15 L21.9 -4.55 Q27.2 -3.95 28.3 -0.9 29.4 2.1 22.7 0.7 L13.5 0.4 Q4.35 5.05 -0.85 -1.85 -3.4 -5.5 -0.8 -11.4 0.8 -15.25 -1.7 -18.45 -3.55 -20.9 -2.5 -22.25 -1.1 -23.5 1.45 -22.05 6.15 -18.6 4 -12.3 6.4 -11.2 9.05 -12.35 10.55 -14.8 10.15 -18.65 7.15 -19.35 4.75 -20.9"/></g><g xmlns="http://www.w3.org/2000/svg" id=":m83-1bon81ndm" bounds="-3,-22,24,31"><path stroke="none" fill="rgb(0,0,0)" d="M12.5 -14.05 L15.9 -14.65 Q24.1 -15.3 17.75 -5.8 22.9 -5.25 18.25 3.05 15.15 7.3 11.6 8.2 8 9.05 7.65 5.5 -0.3 3.5 -2.75 -2.75 -5.45 -9.95 -1.15 -15.7 L0.3 -17.3 1.15 -15.95 0.2 -14.85 Q-2.3 -11.35 -1.9 -6.4 -0.55 1.35 7.75 3.85 8.35 1.7 9.15 0.8 4.25 2.35 5.4 -2.7 4.15 -1.3 2.7 -1.4 4.55 -2.85 4.45 -4.65 6.1 -3.45 7.6 -3.95 L7.55 -3.85 Q6.75 -0.85 9 -1 12.15 -1.75 14.7 -4.45 16.3 -6 17.6 -8.2 20.6 -14.45 12.5 -13.1 L12.5 -14.05 M8.9 -15.65 L7.8 -14.55 6.85 -15.9 8.9 -15.65 M9.75 -8.5 Q11.95 -10.35 14.45 -10 11.55 -8.85 9.85 -7.1 L9.75 -8.5 M12.95 -1.2 Q9.85 1.45 9.6 4 9.45 5.8 11.5 6.1 15.85 5.35 17.8 0.55 19.8 -4.3 16.2 -4.4 14.05 -1.85 12.95 -1.2"/><path stroke="none" fill="rgb(187,177,159)" d="M12.95 -1.2 Q14.05 -1.85 16.2 -4.4 19.8 -4.3 17.8 0.55 15.85 5.35 11.5 6.1 9.45 5.8 9.6 4 9.85 1.45 12.95 -1.2 M12.5 -14.05 L12.5 -13.1 Q20.6 -14.45 17.6 -8.2 16.3 -6 14.7 -4.45 12.15 -1.75 9 -1 6.75 -0.85 7.55 -3.85 L7.6 -3.95 Q9.3 -5.05 9.85 -7.1 11.55 -8.85 14.45 -10 11.95 -10.35 9.75 -8.5 9.55 -11.9 7.8 -14.55 L8.9 -15.65 12.5 -14.05 M4.45 -4.65 Q4.55 -2.85 2.7 -1.4 4.15 -1.3 5.4 -2.7 4.25 2.35 9.15 0.8 8.35 1.7 7.75 3.85 -0.55 1.35 -1.9 -6.4 -2.3 -11.35 0.2 -14.85 L1.15 -15.95 2.55 -13.85 Q0 -9.4 3 -6.05 L4.4 -4.7 4.45 -4.65"/><path stroke="none" fill="rgb(0,0,0)" d="M5.55 -15.7 L4.8 -16.8 Q11.75 -23.8 14.85 -21.85 17.6 -19.4 14.05 -13.05 11.65 -9.35 8.8 -7.95 L8.55 -9.2 Q11.35 -10.8 13.4 -14.6 15.35 -18.5 13.25 -20.15 11.15 -21.75 5.55 -15.7 M6.4 -14.75 Q7.15 -16.05 9.1 -16.9 7.65 -15.3 7 -13.65 L6.4 -14.75"/><path stroke="none" fill="rgb(187,177,159)" d="M5.55 -15.7 Q11.15 -21.75 13.25 -20.15 15.35 -18.5 13.4 -14.6 11.35 -10.8 8.55 -9.2 8.1 -11.8 7 -13.65 7.65 -15.3 9.1 -16.9 7.15 -16.05 6.4 -14.75 L5.65 -15.55 5.55 -15.7"/><path stroke="none" fill="rgb(0,0,0)" d="M2.55 -13.85 Q1 -8.45 6.2 -5.95 8.6 -5.9 8.35 -8.8 7.35 -13.05 5 -15.5 3.15 -17.8 1.15 -15.95 L0.3 -17.3 Q3.65 -20.55 6.85 -15.9 L7.8 -14.55 Q9.55 -11.9 9.75 -8.5 L9.85 -7.1 Q9.3 -5.05 7.6 -3.95 6.1 -3.45 4.45 -4.65 L4.4 -4.7 3 -6.05 Q0 -9.4 2.55 -13.85"/><path stroke="none" fill="rgb(187,177,159)" d="M2.55 -13.85 L1.15 -15.95 Q3.15 -17.8 5 -15.5 7.35 -13.05 8.35 -8.8 8.6 -5.9 6.2 -5.95 1 -8.45 2.55 -13.85"/></g><g xmlns="http://www.w3.org/2000/svg" id=":m66-1bon81ndm" bounds="4,-23,26,56"><path stroke="none" fill="rgb(0,0,0)" d="M29.25 -22.15 Q30.05 -19.3 29.1 -16 24.1 -3.45 20.35 7.15 17.75 12.85 12.7 11.95 7.1 11 6.65 4.35 L7.2 -5.95 Q7.55 -8.4 9.15 -10.8 L9.05 -8.05 8.35 4.05 Q9 9.3 12.85 9.95 16.6 10.65 18.55 6.4 L29.25 -22.15 Z"/><path stroke="none" fill="rgb(85,92,183)" d="M29.25 -22.15 L18.55 6.4 Q16.6 10.65 12.85 9.95 9 9.3 8.35 4.05 L9.05 -8.05 9.15 -10.8 Q13.55 -26.2 29.25 -22.15 Z"/><path stroke="none" fill="rgb(0,0,0)" d="M8.5 3.1 Q6.95 19.05 5.55 28 5.7 30.45 8 30.8 10.55 30.85 11.25 28 13.9 19.55 18.7 5.85 L20.5 6.85 Q15.75 19.75 12.9 29.1 11.1 33.2 7.5 32.7 3.8 32 3.8 28 5.2 19.05 6.65 4.75 7.3 3.3 8.5 3.1 Z"/><path stroke="none" fill="rgb(85,92,183)" d="M8.5 3.1 L18.7 5.85 Q13.9 19.55 11.25 28 10.55 30.85 8 30.8 5.7 30.45 5.55 28 6.95 19.05 8.5 3.1 Z"/></g><g xmlns="http://www.w3.org/2000/svg" id=":m67-1bon81ndm" bounds="-22,-22,32,55"><path stroke="none" fill="rgb(85,92,183)" d="M9.15 -10.8 L6.1 -7.5 Q-1.4 0.9 -7.25 10.45 -9.2 13.2 -12 12.25 -14.25 11.1 -13.85 7.65 -10.4 -3.8 -7.7 -15.1 L-7.1 -16.6 Q-6.45 -18.1 -5.6 -19.2 -2 -24.1 4.6 -22.25 10.65 -19.35 9.15 -10.8 Z"/><path stroke="none" fill="rgb(0,0,0)" d="M9.15 -10.8 Q8.85 -8.1 7.85 -6.8 -0.1 2 -5.8 11.05 -8.9 16.05 -13.35 14.05 -16.4 12 -15.8 6.8 -12.5 -4.05 -9.8 -14.85 -8.3 -18.55 -5.6 -19.2 -6.45 -18.1 -7.1 -16.6 L-7.7 -15.1 Q-10.4 -3.8 -13.85 7.65 -14.25 11.1 -12 12.25 -9.2 13.2 -7.25 10.45 -1.4 0.9 6.1 -7.5 L9.15 -10.8 Z"/><path stroke="none" fill="rgb(85,92,183)" d="M-7.25 10.45 Q-12.35 18.8 -17.1 29.8 -18.25 31.5 -19.75 30.8 -21 29.8 -20.65 28 -16.95 17.75 -13.85 7.65 L-7.25 10.45 Z"/><path stroke="none" fill="rgb(0,0,0)" d="M-7.25 10.45 L-5.95 11.3 Q-11.15 19.5 -16.1 31.05 -17.9 33.6 -20.2 32.85 -22.9 31.85 -22.75 28 -19 17.45 -15.85 7.05 L-13.85 7.65 Q-16.95 17.75 -20.65 28 -21 29.8 -19.75 30.8 -18.25 31.5 -17.1 29.8 -12.35 18.8 -7.25 10.45 Z"/></g><g xmlns="http://www.w3.org/2000/svg" id=":m68-1bon81ndm" bounds="-11,-64,47,47"><path stroke="none" fill="rgb(0,0,0)" d="M31.4 -23.25 Q12.2 -14.75 -9.15 -18.45 -3.65 -53.75 19.9 -50.4 33.1 -37.25 31.4 -23.25 Z"/><path stroke="none" fill="rgb(0,0,0)" d="M11.85 -62.9 L13.8 -62.25 15.8 -61.45 13.2 -57.6 Q30.35 -48 35.4 -28.45 L35.85 -26.6 34.15 -25.95 Q27.15 -23.55 20.45 -22.15 L18.45 -21.75 16.5 -21.4 Q2.05 -19.05 -11.95 -21.95 -10.95 -22.8 -9.25 -34.5 -7.35 -47.6 -8.25 -55.2 L-8.25 -55.25 -10.55 -59.1 -8.95 -60.5 Q-3.95 -64.55 2.95 -64.5 L5.5 -64.35 5.8 -64.3 7 -64.1 7.2 -63.15 7.7 -64 8.85 -63.75 9.15 -63.7 11.85 -62.9 M8.35 -58.55 L8.9 -62.15 7.85 -62.35 6.85 -60.95 6.3 -62.6 5.3 -62.7 5.1 -58.65 5 -58.65 4.9 -58.6 5.1 -58.65 Q16 -44.35 16.4 -23.4 L18.45 -23.75 20.4 -24.15 Q19.65 -44.85 8.35 -58.55 M2.85 -58.55 Q-3.2 -58.15 -6.35 -54.75 -4.5 -37.85 -8.65 -23.8 L-8.8 -23.3 Q2.5 -21.4 14.85 -23.15 14.4 -44.5 3.3 -58.6 L2.85 -58.55 M11.45 -57.15 L10.6 -57.6 11.95 -55.8 Q20.9 -42.95 21.6 -24.4 27.5 -25.7 33.65 -27.8 L33.6 -28.05 Q28.7 -46.95 12.5 -56.55 L11.45 -57.15 M2.9 -59.6 L2.9 -62.8 Q-3.55 -62.7 -8.35 -58.9 L-7.3 -56.2 Q-3.8 -59.55 2.9 -59.6 M11.95 -58.25 L13.2 -60.9 11.15 -61.55 9.9 -59 11.95 -58.25"/><path stroke="none" fill="rgb(200,164,194)" d="M11.45 -57.15 L12.5 -56.55 Q28.7 -46.95 33.6 -28.05 L33.65 -27.8 Q27.5 -25.7 21.6 -24.4 20.9 -42.95 11.95 -55.8 L10.6 -57.6 11.45 -57.15 M2.85 -58.55 L3.3 -58.6 Q14.4 -44.5 14.85 -23.15 2.5 -21.4 -8.8 -23.3 L-8.65 -23.8 Q-4.5 -37.85 -6.35 -54.75 -3.2 -58.15 2.85 -58.55"/><path stroke="none" fill="rgb(153,153,153)" d="M5.1 -58.65 L8.35 -58.55 8 -58.6 8.05 -58.6 8.25 -58.55 8.35 -58.55 Q19.65 -44.85 20.4 -24.15 L18.45 -23.75 16.4 -23.4 Q16 -44.35 5.1 -58.65 L4.9 -58.6 5 -58.65 5.1 -58.65"/><path stroke="none" fill="rgb(102,102,102)" d="M5.1 -58.65 L5.3 -62.7 6.3 -62.6 6.85 -60.95 7.85 -62.35 8.9 -62.15 8.35 -58.55 8.25 -58.55 8.05 -58.6 8 -58.6 8.35 -58.55 5.1 -58.65"/><path stroke="none" fill="rgb(174,121,165)" d="M11.95 -58.25 L9.9 -59 11.15 -61.55 13.2 -60.9 11.95 -58.25 M2.9 -59.6 Q-3.8 -59.55 -7.3 -56.2 L-8.35 -58.9 Q-3.55 -62.7 2.9 -62.8 L2.9 -59.6"/></g><g xmlns="http://www.w3.org/2000/svg" id=":m63-1bon81ndm" bounds="-15,-9,25,16"><path stroke="none" fill="rgb(0,0,0)" d="M-11.1 -9.9 Q-9.45 -9.85 -8.3 -8.7 L9.35 1.85 6.9 6.35 -11.1 -2 Q-12.7 -2 -13.85 -3.15 -15 -4.3 -15.05 -5.95 -15.05 -7.55 -13.85 -8.75 -12.7 -9.9 -11.1 -9.9 Z"/></g><g xmlns="http://www.w3.org/2000/svg" id=":m69-1bon81ndm" bounds="-2,-4,24,31"><path stroke="none" fill="rgb(0,0,0)" d="M14 9.25 L10.55 9.9 Q-0.3 15.3 0.9 16.5 2.1 17.7 9.8 15.85 L12.35 14.85 10.55 16.35 6.4 20.45 Q3.85 22.65 6 23.15 9.15 22.5 14.6 18.1 L14.65 18.05 Q15.55 16.95 16.95 16.1 12.6 23.75 14.65 25 16.7 26.2 18.9 20.55 21.1 14.85 17.5 6.05 14.3 -1.65 1.5 -2.85 -1.5 -2.8 -1.15 -0.45 L-0.85 0.3 -0.4 1.2 Q3.7 8.95 14 9.25 M8.55 16.85 Q-0.1 20.6 -1.6 17.7 -3.65 14.2 8.3 9.85 0.7 9.3 -2.55 -0.7 -2.8 -3.95 1.1 -4.2 15.35 -3.15 19.05 5.35 23.2 15 19.5 22.45 17.85 27.25 15.05 26.85 12.2 26.45 12.45 23.9 12.7 21.35 14 19.3 7.15 26.4 3.85 24.35 0.8 22.5 8.55 16.85"/><path stroke="none" fill="rgb(187,177,159)" d="M14 9.25 Q3.7 8.95 -0.4 1.2 L-0.85 0.3 -1.15 -0.45 Q-1.5 -2.8 1.5 -2.85 14.3 -1.65 17.5 6.05 21.1 14.85 18.9 20.55 16.7 26.2 14.65 25 12.6 23.75 16.95 16.1 15.55 16.95 14.65 18.05 L14.6 18.1 Q9.15 22.5 6 23.15 3.85 22.65 6.4 20.45 L10.55 16.35 12.35 14.85 9.8 15.85 Q2.1 17.7 0.9 16.5 -0.3 15.3 10.55 9.9 L14 9.25"/></g><g xmlns="http://www.w3.org/2000/svg" id=":m65-1bon81ndm" bounds="-9,-16,20,29"><path stroke="none" fill="rgb(0,0,0)" d="M10.35 -14.4 L10.8 -12.85 8.05 -9.3 7.05 -10 7.35 -10.35 10.35 -14.4 M5.7 -11.6 L5.55 -11.1 4.65 -11.75 6.45 -16.25 7.75 -16.55 5.7 -11.6"/><path stroke="none" fill="rgb(187,177,159)" d="M5.7 -11.6 L7.75 -16.55 10.35 -14.4 7.35 -10.35 5.7 -11.6"/><path stroke="none" fill="rgb(0,0,0)" d="M8.2 -10.6 L5.25 -12.55 4.05 -9.45 Q5.2 -8.8 6.4 -8.1 L8.2 -10.6 M9.1 -6.55 L-0.05 5.55 Q0.4 6.5 0.4 7.6 0.4 9.6 -1.05 11 -2.45 12.45 -4.45 12.45 -6.45 12.45 -7.9 11 -9.3 9.6 -9.3 7.6 -9.3 5.6 -7.9 4.15 -6.6 2.9 -4.8 2.8 L1.4 -11 3 -10.05 4.85 -14.95 10.7 -10.8 7.65 -7.4 Q8.35 -7 9.1 -6.55"/><path stroke="none" fill="rgb(255,255,255)" d="M8.2 -10.6 L6.4 -8.1 Q5.2 -8.8 4.05 -9.45 L5.25 -12.55 8.2 -10.6"/></g><g xmlns="http://www.w3.org/2000/svg" id=":m70-1bon81ndm" bounds="-24,-13,49,27"><path stroke="none" fill="rgb(0,0,0)" d="M-24.6 -0.05 Q-24.6 -3.45 -22.35 -5.35 -20.05 -7.9 -18.95 -11.1 L-5.05 -13.05 Q-8.05 -6.45 -5.15 -3.05 17.25 -4.1 23.9 3.35 L24.2 3.7 24.65 4.35 23.4 10 20.7 7.5 17.4 11.5 14.5 9.85 14.45 9.8 11.2 13.05 7.75 10.5 7.7 10.45 4.25 13 2.35 9.8 -1.8 12.05 -6 9.3 -9.8 11.25 -12.15 7.6 -16.9 10.1 -18.85 6.1 -22.45 9.2 -24.55 1.1 -24.6 -0.05 M-5.85 -1.95 L-6.25 -1.8 Q-11.75 0.1 -17.85 0 L-17.5 2.6 -17.3 2.65 Q-9.95 4.8 -1.05 5.2 L-0.5 5.25 Q1.55 1.3 4.9 -1.45 L-5.55 -1.95 -5.85 -1.95 M-7.15 -2.65 Q-9.85 -4.85 -8.3 -10.45 L-17.6 -10.05 Q-19.1 -7.1 -21.2 -4.3 -22.9 -2 -22.7 0.8 L-22.5 0.85 -19.7 1.9 -19.7 -1.45 Q-13.05 -1 -7.15 -2.65 M-9.6 9.55 L-6.05 7.9 -2 10.55 2.45 8.25 4.25 11 6.85 8.75 11.1 11.55 14.2 8.35 17.25 10.05 20.75 5.9 22.7 7.9 23.9 4.5 21.6 4.85 19.95 5.1 Q9.2 6.65 0.05 6.4 L-1.05 6.35 Q-9.95 5.95 -17.3 3.8 L-19.7 3.05 -22.5 2 -23.5 1.55 -21.55 6.45 -18.75 4.6 -16.35 8 -11.55 6.7 -9.6 9.55 M20.9 3.85 Q17.65 0.05 6.9 -1.25 3.15 1.6 0.75 5.3 10 5.45 20.9 3.85"/><path stroke="none" fill="rgb(193,64,57)" d="M-5.85 -1.95 L-5.55 -1.95 4.9 -1.45 Q1.55 1.3 -0.5 5.25 L-1.05 5.2 Q-9.95 4.8 -17.3 2.65 L-17.5 2.6 -17.85 0 Q-11.75 0.1 -6.25 -1.8 L-5.85 -1.95"/><path stroke="none" fill="rgb(211,111,105)" d="M-7.15 -2.65 Q-13.05 -1 -19.7 -1.45 L-19.7 1.9 -22.5 0.85 -22.7 0.8 Q-22.9 -2 -21.2 -4.3 -19.1 -7.1 -17.6 -10.05 L-8.3 -10.45 Q-9.85 -4.85 -7.15 -2.65 M20.9 3.85 Q10 5.45 0.75 5.3 3.15 1.6 6.9 -1.25 17.65 0.05 20.9 3.85"/><path stroke="none" fill="rgb(123,43,36)" d="M-9.6 9.55 L-11.55 6.7 -16.35 8 -18.75 4.6 -21.55 6.45 -23.5 1.55 -22.5 2 -19.7 3.05 -17.3 3.8 Q-9.95 5.95 -1.05 6.35 L0.05 6.4 Q9.2 6.65 19.95 5.1 L21.6 4.85 23.9 4.5 22.7 7.9 20.75 5.9 17.25 10.05 14.2 8.35 11.1 11.55 6.85 8.75 4.25 11 2.45 8.25 -2 10.55 -6.05 7.9 -9.6 9.55"/></g><g xmlns="http://www.w3.org/2000/svg" id=":m71-1bon81ndm" bounds="-25,-12,51,25"><path stroke="none" fill="rgb(0,0,0)" d="M16.6 -0.25 Q10.5 -0.15 5 -2.05 L4.6 -2.2 4.3 -2.2 -6.1 -1.7 Q-2.8 1.05 -0.7 5 L-0.2 4.95 Q8.7 4.55 16.1 2.4 L16.25 2.35 16.6 -0.25 M12.95 -12.75 L25.9 -11.8 Q22.05 -8.15 23.45 -5.8 24.8 -3.45 24.35 -1.5 L23.75 0.95 21.25 8.95 17.6 5.85 15.65 9.85 10.9 7.35 8.6 11 4.8 9.05 0.55 11.8 -3.6 9.55 -5.5 12.75 -8.9 10.2 -8.95 10.25 -12.4 12.8 -15.65 9.55 -15.75 9.6 -18.65 11.25 -21.95 7.25 -24.6 9.75 -25.9 4.1 -25.4 3.45 -25.1 3.1 Q-18.5 -4.35 3.95 -3.3 9.2 -4.1 12.95 -12.75 M7.75 -2.5 Q11.8 -1.25 18.5 -1.7 L18.5 1.65 21.3 0.6 21.9 -0.85 Q22.45 -2.25 21.3 -4.85 20.1 -7.45 22.35 -10.7 L14.3 -10.7 Q11 -2.85 7.75 -2.5 M21.3 1.75 L18.5 2.8 16.1 3.55 Q8.7 5.7 -0.2 6.1 L-1.3 6.15 Q-10.45 6.4 -21.15 4.85 L-22.8 4.6 -25.15 4.25 -23.95 7.65 -21.95 5.65 -18.5 9.8 -15.45 8.1 -12.3 11.3 -8.05 8.5 -5.5 10.75 -3.65 8 0.75 10.3 4.8 7.65 8.35 9.3 10.3 6.45 15.15 7.75 17.5 4.35 20.3 6.2 22.25 1.3 21.3 1.75 M-22.1 3.6 Q-11.25 5.2 -1.95 5.05 -4.4 1.35 -8.15 -1.5 -18.9 -0.2 -22.1 3.6"/><path stroke="none" fill="rgb(211,111,105)" d="M-22.1 3.6 Q-18.9 -0.2 -8.15 -1.5 -4.4 1.35 -1.95 5.05 -11.25 5.2 -22.1 3.6 M7.75 -2.5 Q11 -2.85 14.3 -10.7 L22.35 -10.7 Q20.1 -7.45 21.3 -4.85 22.45 -2.25 21.9 -0.85 L21.3 0.6 18.5 1.65 18.5 -1.7 Q11.8 -1.25 7.75 -2.5"/><path stroke="none" fill="rgb(193,64,57)" d="M16.6 -0.25 L16.25 2.35 16.1 2.4 Q8.7 4.55 -0.2 4.95 L-0.7 5 Q-2.8 1.05 -6.1 -1.7 L4.3 -2.2 4.6 -2.2 5 -2.05 Q10.5 -0.15 16.6 -0.25"/><path stroke="none" fill="rgb(123,43,36)" d="M21.3 1.75 L22.25 1.3 20.3 6.2 17.5 4.35 15.15 7.75 10.3 6.45 8.35 9.3 4.8 7.65 0.75 10.3 -3.65 8 -5.5 10.75 -8.05 8.5 -12.3 11.3 -15.45 8.1 -18.5 9.8 -21.95 5.65 -23.95 7.65 -25.15 4.25 -22.8 4.6 -21.15 4.85 Q-10.45 6.4 -1.3 6.15 L-0.2 6.1 Q8.7 5.7 16.1 3.55 L18.5 2.8 21.3 1.75"/></g><g xmlns="http://www.w3.org/2000/svg" id=":m89-1bon81ndm" bounds="0,0,15,25"><path stroke="none" fill="rgb(0,0,0)" d="M7.65 13.95 L12.3 22.65 9.3 24.3 4.5 15.6 0 20.55 0 0 14.15 13.3 7.65 13.95 Z"/><path fill="none" stroke="rgb(255,255,255)" stroke-width="1" stroke-linecap="round" stroke-linejoin="round" d="M7.65 13.95 L14.15 13.3 0 0 0 20.55 4.5 15.6 9.3 24.3 12.3 22.65 7.65 13.95 Z"/></g><g xmlns="http://www.w3.org/2000/svg" id=":m117-1bon81ndm" bounds="11,4,141,21"><text x="0" y="24" font-family="&apos;Arial&apos;" font-size="26" fill="#000000" style="white-space:pre" transform="matrix(1 0 0 1 8.35 0)">Marvelous!</text></g><g xmlns="http://www.w3.org/2000/svg" id=":m77-1bon81ndm" bounds="15,4,131,26"><text x="0" y="24" font-family="&apos;Arial&apos;" font-size="26" fill="#000000" style="white-space:pre" transform="matrix(1 0 0 1 14.15 0)">Try again.</text></g><g xmlns="http://www.w3.org/2000/svg" id=":m72-1bon81ndm" bounds="-13,-12,90,25"><path fill="rgb(0,0,0)" stroke="rgb(255,255,255)" stroke-width="1" stroke-linecap="round" stroke-linejoin="round" d="M-13.45 -11.85 L75.55 -11.85 75.55 12.15 -13.45 12.15 -13.45 -11.85 Z"/></g><g xmlns="http://www.w3.org/2000/svg" id=":m73-1bon81ndm" bounds="-95,-107,191,169"><path stroke="none" fill="rgb(0,0,0)" d="M0 -3.65 Q-23.55 -3.65 -42.95 -9.1 -56 -12.8 -67.2 -18.9 -95.05 -34.1 -95.05 -55.65 -95.05 -77.2 -67.2 -92.45 -39.35 -107.65 0 -107.65 39.35 -107.65 67.2 -92.45 95.05 -77.2 95.05 -55.65 95.05 -48.5 92 -42 85.8 -29.05 67.2 -18.9 50.75 -9.9 30.35 -6.2 L29.7 -6.05 -1.45 61.1 2.65 -3.7 0 -3.65 M-75.35 -31.35 Q-69.7 -26 -61.1 -21.3 -35.7 -7.35 0.3 -7.35 L6.35 -7.45 6.95 -7.45 9.05 -7.55 3.85 38.7 24.75 -9.15 28 -9.7 Q46.65 -13.1 61.65 -21.3 87.1 -35.2 87.1 -54.9 87.1 -64.15 81.5 -72.15 75.15 -81.2 61.65 -88.6 36.2 -102.5 0.3 -102.5 -35.7 -102.5 -61.1 -88.6 -86.55 -74.65 -86.55 -54.9 -86.55 -41.85 -75.35 -31.35"/><path stroke="none" fill="rgb(255,255,255)" d="M-75.35 -31.35 Q-80.95 -39.3 -80.95 -48.5 -80.95 -68.25 -55.5 -82.2 -30.1 -96.1 5.9 -96.1 41.8 -96.1 67.25 -82.2 75.8 -77.5 81.5 -72.15 87.1 -64.15 87.1 -54.9 87.1 -35.2 61.65 -21.3 46.65 -13.1 28 -9.7 L24.75 -9.15 3.85 38.7 16.8 -6.2 9.05 -7.55 6.95 -7.45 6.35 -7.45 0.3 -7.35 Q-35.7 -7.35 -61.1 -21.3 -69.7 -26 -75.35 -31.35"/><path stroke="none" fill="rgb(204,204,204)" d="M-75.35 -31.35 Q-86.55 -41.85 -86.55 -54.9 -86.55 -74.65 -61.1 -88.6 -35.7 -102.5 0.3 -102.5 36.2 -102.5 61.65 -88.6 75.15 -81.2 81.5 -72.15 75.8 -77.5 67.25 -82.2 41.8 -96.1 5.9 -96.1 -30.1 -96.1 -55.5 -82.2 -80.95 -68.25 -80.95 -48.5 -80.95 -39.3 -75.35 -31.35 M9.05 -7.55 L16.8 -6.2 3.85 38.7 9.05 -7.55"/></g><g xmlns="http://www.w3.org/2000/svg" id=":m75-1bon81ndm" bounds="39,4,84,26"><text x="0" y="24" font-family="&apos;Arial&apos;" font-size="26" fill="#000000" style="white-space:pre" transform="matrix(1 0 0 1 37.25 0)">Oops!</text></g><g xmlns="http://www.w3.org/2000/svg" id=":m79-1bon81ndm" bounds="-41,-12,86,24"><path fill="rgb(0,0,0)" stroke="rgb(255,255,255)" stroke-width="1" stroke-linecap="round" stroke-linejoin="round" d="M-40.9 -11.65 L44.1 -11.65 44.1 11.35 -40.9 11.35 -40.9 -11.65 Z"/></g></defs><g id="s0"><g id="s0d1m2"><g id="s2"><use  id="s2d2m1" x="0" y="0" xlink:href="#:m1-1bon81ndm"/></g></g><g id="s0d4m11"><g id="s11"><use  id="s11d1m3" x="0" y="0" xlink:href="#:m3-1bon81ndm"/><g id="s11d2m5"><g id="s5"><use  id="s5d1m4" x="0" y="0" xlink:href="#:m4-1bon81ndm"/></g></g><use  id="s11d4m6" x="0" y="0" xlink:href="#:m6-1bon81ndm"/><g id="s11d5m10"><g id="s10"><use  id="s10d1m7" x="0" y="0" xlink:href="#:m7-1bon81ndm"/><g id="s10d2m9"><g id="s9"><use  id="s9d1m8" x="0" y="0" xlink:href="#:m8-1bon81ndm"/></g></g></g></g></g></g><use  id="s0d10m12" x="0" y="0" xlink:href="#:m12-1bon81ndm"/><use  id="s0d11m13" x="0" y="0" xlink:href="#:m13-1bon81ndm"/><use  id="s0d13m14" x="0" y="0" xlink:href="#:m14-1bon81ndm"/><use  id="s0d14m15" x="0" y="0" xlink:href="#:m15-1bon81ndm"/><use  id="s0d15m17" x="0" y="0" xlink:href="#:m17-1bon81ndm"/><use  id="s0d16m18" x="0" y="0" xlink:href="#:m18-1bon81ndm"/><use  id="s0d17m19" x="0" y="0" xlink:href="#:m19-1bon81ndm"/><use  id="s0d18m20" x="0" y="0" xlink:href="#:m20-1bon81ndm"/><use  id="s0d19m21" x="0" y="0" xlink:href="#:m21-1bon81ndm"/><use  id="s0d20m21" x="0" y="0" xlink:href="#:m21-1bon81ndm"/><g id="s0d21m24"><g id="s24"><g id="s24d1m23"><g id="s23"><use  id="s23d99m22" x="0" y="0" xlink:href="#:m22-1bon81ndm"/></g></g></g></g><g id="s0d23m27"><g id="s27"><use  id="s27d1m25" x="0" y="0" xlink:href="#:m25-1bon81ndm"/><use  id="s27d2m26" x="0" y="0" xlink:href="#:m26-1bon81ndm"/></g></g><use  id="s0d26m28" x="0" y="0" xlink:href="#:m28-1bon81ndm"/><clipPath id="s0d27cp29"><path stroke="none" fill="rgb(53,84,44)" d="M456.2 338.1 L0 338.1 0 0.85 456.2 0.85 456.2 338.1 Z"/></clipPath><use  id="s0d28m30" x="0" y="0" xlink:href="#:m30-1bon81ndm"/><use  id="s0d28m92" x="0" y="0" xlink:href="#:m92-1bon81ndm"/><use  id="s0d29m32" x="0" y="0" xlink:href="#:m32-1bon81ndm"/><use  id="s0d30m33" x="0" y="0" xlink:href="#:m33-1bon81ndm"/><use  id="s0d31m34" x="0" y="0" xlink:href="#:m34-1bon81ndm"/><use  id="s0d32m35" x="0" y="0" xlink:href="#:m35-1bon81ndm"/><use  id="s0d33m36" x="0" y="0" xlink:href="#:m36-1bon81ndm"/><use  id="s0d34m37" x="0" y="0" xlink:href="#:m37-1bon81ndm"/><use  id="s0d35m39" x="0" y="0" xlink:href="#:m39-1bon81ndm"/><use  id="s0d36m40" x="0" y="0" xlink:href="#:m40-1bon81ndm"/><use  id="s0d38m93" x="0" y="0" xlink:href="#:m93-1bon81ndm"/><use  id="s0d39m94" x="0" y="0" xlink:href="#:m94-1bon81ndm"/><use  id="s0d40m95" x="0" y="0" xlink:href="#:m95-1bon81ndm"/><use  id="s0d41m96" x="0" y="0" xlink:href="#:m96-1bon81ndm"/><use  id="s0d42m97" x="0" y="0" xlink:href="#:m97-1bon81ndm"/><use  id="s0d43m98" x="0" y="0" xlink:href="#:m98-1bon81ndm"/><use  id="s0d44m99" x="0" y="0" xlink:href="#:m99-1bon81ndm"/><use  id="s0d45m100" x="0" y="0" xlink:href="#:m100-1bon81ndm"/><use  id="s0d46m101" x="0" y="0" xlink:href="#:m101-1bon81ndm"/><use  id="s0d47m103" x="0" y="0" xlink:href="#:m103-1bon81ndm"/><use  id="s0d48m104" x="0" y="0" xlink:href="#:m104-1bon81ndm"/><use  id="s0d49m105" x="0" y="0" xlink:href="#:m105-1bon81ndm"/><use  id="s0d50m106" x="0" y="0" xlink:href="#:m106-1bon81ndm"/><use  id="s0d51m107" x="0" y="0" xlink:href="#:m107-1bon81ndm"/><use  id="s0d52m108" x="0" y="0" xlink:href="#:m108-1bon81ndm"/><g id="s0d53m110"><g id="s110"><use  id="s110d2m109" x="0" y="0" xlink:href="#:m109-1bon81ndm"/></g></g><use  id="s0d56m111" x="0" y="0" xlink:href="#:m111-1bon81ndm"/><use  id="s0d58m112" x="0" y="0" xlink:href="#:m112-1bon81ndm"/><use  id="s0d60m112" x="0" y="0" xlink:href="#:m112-1bon81ndm"/><use  id="s0d61m113" x="0" y="0" xlink:href="#:m113-1bon81ndm"/><g id="s0d63m45"><g id="s45"><use  id="s45d1m41" x="0" y="0" xlink:href="#:m41-1bon81ndm"/><use  id="s45d1m43" x="0" y="0" xlink:href="#:m43-1bon81ndm"/><use  id="s45d2m42" x="0" y="0" xlink:href="#:m42-1bon81ndm"/><use  id="s45d2m44" x="0" y="0" xlink:href="#:m44-1bon81ndm"/></g></g><g id="s0d66m47"><g id="s47"><use  id="s47d1m46" x="0" y="0" xlink:href="#:m46-1bon81ndm"/></g></g><use  id="s0d68m43" x="0" y="0" xlink:href="#:m43-1bon81ndm"/><use  id="s0d68m114" x="0" y="0" xlink:href="#:m114-1bon81ndm"/><use  id="s0d69m44" x="0" y="0" xlink:href="#:m44-1bon81ndm"/><use  id="s0d69m115" x="0" y="0" xlink:href="#:m115-1bon81ndm"/><use  id="s0d70m48" x="0" y="0" xlink:href="#:m48-1bon81ndm"/><use  id="s0d70m116" x="0" y="0" xlink:href="#:m116-1bon81ndm"/><use  id="s0d71m49" x="0" y="0" xlink:href="#:m49-1bon81ndm"/><use  id="s0d71m55" x="0" y="0" xlink:href="#:m55-1bon81ndm"/><use  id="s0d72m56" x="0" y="0" xlink:href="#:m56-1bon81ndm"/><use  id="s0d72m82" x="0" y="0" xlink:href="#:m82-1bon81ndm"/><use  id="s0d72m90" x="0" y="0" xlink:href="#:m90-1bon81ndm"/><use  id="s0d72m91" x="0" y="0" xlink:href="#:m91-1bon81ndm"/><use  id="s0d73m56" x="0" y="0" xlink:href="#:m56-1bon81ndm"/><use  id="s0d73m82" x="0" y="0" xlink:href="#:m82-1bon81ndm"/><use  id="s0d73m92" x="0" y="0" xlink:href="#:m92-1bon81ndm"/><use  id="s0d74m90" x="0" y="0" xlink:href="#:m90-1bon81ndm"/><g id="s0d75m54"><g id="s54"><use  id="s54d2m50" x="0" y="0" xlink:href="#:m50-1bon81ndm"/><use  id="s54d3m51" x="0" y="0" xlink:href="#:m51-1bon81ndm"/><use  id="s54d4m52" x="0" y="0" xlink:href="#:m52-1bon81ndm"/><use  id="s54d7m53" x="0" y="0" xlink:href="#:m53-1bon81ndm"/><use  id="s54d8m41" x="0" y="0" xlink:href="#:m41-1bon81ndm"/><use  id="s54d9m42" x="0" y="0" xlink:href="#:m42-1bon81ndm"/></g></g><use  id="s0d85m55" x="0" y="0" xlink:href="#:m55-1bon81ndm"/><use  id="s0d86m56" x="0" y="0" xlink:href="#:m56-1bon81ndm"/><use  id="s0d86m82" x="0" y="0" xlink:href="#:m82-1bon81ndm"/><use  id="s0d86m88" x="0" y="0" xlink:href="#:m88-1bon81ndm"/><use  id="s0d87m56" x="0" y="0" xlink:href="#:m56-1bon81ndm"/><use  id="s0d87m82" x="0" y="0" xlink:href="#:m82-1bon81ndm"/><use  id="s0d87m88" x="0" y="0" xlink:href="#:m88-1bon81ndm"/><g id="s0d88m58"><g id="s58"><use  id="s58d1m57" x="0" y="0" xlink:href="#:m57-1bon81ndm"/></g></g><g id="s0d90m60"><g id="s60"><use  id="s60d1m59" x="0" y="0" xlink:href="#:m59-1bon81ndm"/></g></g><g id="s0d92m60"><g id="s60"><use  id="s60d1m59" x="0" y="0" xlink:href="#:m59-1bon81ndm"/></g></g><use  id="s0d94m61" x="0" y="0" xlink:href="#:m61-1bon81ndm"/><g id="s0d94m86"><g id="s86"><use  id="s86d1m84" x="0" y="0" xlink:href="#:m84-1bon81ndm"/><use  id="s86d2m85" x="0" y="0" xlink:href="#:m85-1bon81ndm"/></g></g><g id="s0d94m119"><g id="s119"><use  id="s119d1m118" x="0" y="0" xlink:href="#:m118-1bon81ndm"/><use  id="s119d2m85" x="0" y="0" xlink:href="#:m85-1bon81ndm"/></g></g><use  id="s0d97m62" x="0" y="0" xlink:href="#:m62-1bon81ndm"/><use  id="s0d98m63" x="0" y="0" xlink:href="#:m63-1bon81ndm"/><use  id="s0d99m64" x="0" y="0" xlink:href="#:m64-1bon81ndm"/><use  id="s0d99m87" x="0" y="0" xlink:href="#:m87-1bon81ndm"/><use  id="s0d99m120" x="0" y="0" xlink:href="#:m120-1bon81ndm"/><use  id="s0d101m83" x="0" y="0" xlink:href="#:m83-1bon81ndm"/><use  id="s0d103m65" x="0" y="0" xlink:href="#:m65-1bon81ndm"/><use  id="s0d105m66" x="0" y="0" xlink:href="#:m66-1bon81ndm"/><use  id="s0d107m67" x="0" y="0" xlink:href="#:m67-1bon81ndm"/><use  id="s0d109m68" x="0" y="0" xlink:href="#:m68-1bon81ndm"/><use  id="s0d110m63" x="0" y="0" xlink:href="#:m63-1bon81ndm"/><use  id="s0d111m69" x="0" y="0" xlink:href="#:m69-1bon81ndm"/><use  id="s0d113m65" x="0" y="0" xlink:href="#:m65-1bon81ndm"/><use  id="s0d114m70" x="0" y="0" xlink:href="#:m70-1bon81ndm"/><use  id="s0d115m71" x="0" y="0" xlink:href="#:m71-1bon81ndm"/><g id="s0d116m74"><g id="s74"><use  id="s74d1m73" x="0" y="0" xlink:href="#:m73-1bon81ndm"/></g></g><use  id="s0d116m89" x="0" y="0" xlink:href="#:m89-1bon81ndm"/><use  id="s0d118m117" x="0" y="0" xlink:href="#:m117-1bon81ndm"/><g id="s0d119m78"><g id="s78"><g id="s78d1m74"><g id="s74"><use  id="s74d1m73" x="0" y="0" xlink:href="#:m73-1bon81ndm"/></g></g><use  id="s78d3m75" x="0" y="0" xlink:href="#:m75-1bon81ndm"/><use  id="s78d3m77" x="0" y="0" xlink:href="#:m77-1bon81ndm"/><use  id="s78d4m72" x="0" y="0" xlink:href="#:m72-1bon81ndm"/></g></g><g id="s0d124m81"><g id="s81"><g id="s81d1m74"><g id="s74"><use  id="s74d1m73" x="0" y="0" xlink:href="#:m73-1bon81ndm"/></g></g><use  id="s81d3m75" x="0" y="0" xlink:href="#:m75-1bon81ndm"/><use  id="s81d4m79" x="0" y="0" xlink:href="#:m79-1bon81ndm"/></g></g></g><defs><linearGradient gradientUnits="userSpaceOnUse" x1="-819.2" x2="819.2" spreadMethod="pad" gradientTransform="matrix(0 -0.0367431640625 0.0362548828125 0 232.2 30.1)" id=":1-0-1bon81mmi"><stop offset="0.00" stop-color="#eae9e9" stop-opacity="1.00"/><stop offset="1.00" stop-color="#ffffff" stop-opacity="1.00"/></linearGradient></defs></svg>